<?xml version="1.0" standalone="no"?>
<!DOCTYPE svg PUBLIC "-//W3C//DTD SVG 1.1//EN" "http://www.w3.org/Graphics/SVG/1.1/DTD/svg11.dtd" >
<svg>
<metadata>
Created by FontForge 20110222 at Mon Mar  7 11:28:38 2011
 By www-data
Copyright (c) Nick Curtis, 2000. All rights reserved.
</metadata>
<defs>
<font id="BuffaloNickel" horiz-adv-x="751" >
  <font-face 
    font-family="Buffalo Nickel"
    font-weight="400"
    font-stretch="normal"
    units-per-em="1000"
    panose-1="2 0 5 5 0 0 0 2 0 3"
    ascent="800"
    descent="-200"
    x-height="505"
    cap-height="756"
    bbox="-57 -200 1029 971"
    underline-thickness="20"
    underline-position="-123"
    unicode-range="U+0020-2022"
  />
    <missing-glyph />
    <glyph glyph-name="space" unicode=" " horiz-adv-x="500" 
 />
    <glyph glyph-name="space" unicode="&#xa0;" horiz-adv-x="500" 
 />
    <glyph glyph-name="quotedbl" unicode="&#x22;" horiz-adv-x="407" 
d="M388 644q1 -6 1 -10q0 -61 -50 -109q-42 -40 -147 -85l-14 49q38 20 52 29q32 20 44 39q9 14 9 28q0 27 -26 47q-11 8 -27 15q1 -8 1 -12q0 -62 -50 -110q-42 -40 -147 -85l-14 49q38 20 52 29q32 20 44 39q9 14 9 28q0 40 -70 69l88 104q35 -25 50 -39q24 -23 32 -51
l76 90q43 -29 59 -46q28 -31 28 -68z" />
    <glyph glyph-name="ampersand" unicode="&#x26;" horiz-adv-x="690" 
d="M675 412q3 -10 3 -20q0 -19 -15 -60l-102 -1q19 25 29 40q20 32 20 49q0 9 -5 13q-15 13 -32 13q-48 0 -114 -95l13 -28q39 -85 81 -85q20 0 41 21q14 13 19 17l39 -29q-27 -34 -47 -51q-44 -38 -97 -38q-76 0 -135 77q-106 -78 -171 -78q-71 0 -112 47q-23 25 -23 61
q-1 8 -1 13q0 120 222 209q-2 24 -2 38q0 132 98 180q31 15 73 15q101 0 116 -66l2 -9l-89 -64q-5 34 -6 39q-5 21 -18 37q-4 5 -9.5 10t-12.5 5q-21 0 -30 -29q-6 -18 -6 -44q0 -16 4 -49q5 -48 28 -131q58 73 136 73q79 0 103 -80zM346 280q-38 73 -52 161
q-61 -30 -80 -52q-22 -25 -22 -61q0 -34 20 -62t53 -28q27 0 54 21z" />
    <glyph glyph-name="quotesingle" unicode="'" horiz-adv-x="214" 
d="M223 644q1 -6 1 -10q0 -62 -50 -110q-42 -41 -147 -84l-14 49q105 55 105 98q0 29 -35 50q-9 5 -34 17l88 104q43 -30 58 -46q28 -31 28 -68z" />
    <glyph glyph-name="parenleft" unicode="(" horiz-adv-x="271" 
d="M277 -65h-16q-24 0 -41.5 -17.5t-17.5 -41.5q0 -40 38 -55l-3 -19q-16 -2 -34 -2q-86 0 -147.5 48.5t-61.5 119.5q0 70 62 119t148 49h73v-201z" />
    <glyph glyph-name="parenright" unicode=")" horiz-adv-x="270" 
d="M279 164q0 -85 -41 -142q-42 -61 -122 -78q-41 -9 -111 -9h-62v201h122q31 0 52 21t21 52t-21 51.5t-52 20.5q-16 0 -31 -7q-8 -4 -27 -17v44q49 34 101 34q71 0 121 -50t50 -121z" />
    <glyph glyph-name="zero" unicode="0" horiz-adv-x="478" 
d="M487 559l-13 -42l-30 7q-45 -209 -126 -296q-64 -69 -148 -69q-24 0 -46 4q-117 21 -117 176q0 42 11 89q49 209 283 308l22 -36q-164 -173 -164 -358q0 -61 14.5 -85.5t39.5 -24.5q53 0 94 70q66 112 83 233q-73 22 -73 92q0 22 13 53q19 43 58 49q63 9 63 -122
q0 -26 -2 -38z" />
    <glyph glyph-name="one" unicode="1" horiz-adv-x="290" 
d="M341 730q-22 -85 -49 -190l-47 -186q-24 -91 -53 -192l-169 -9q106 280 154 468q-25 -21 -48 -47q-15 -17 -42 -53l-57 17q85 121 206 187q11 6 49 6h28q19 -1 28 -1z" />
    <glyph glyph-name="two" unicode="2" horiz-adv-x="480" 
d="M491 574q0 -65 -65 -123q-39 -35 -141 -93q-98 -55 -137 -93q24 4 54 4q19 0 56 -2.5t55 -2.5h25q29 0 41 5q17 7 28 29l7 14l51 -16q-29 -69 -35 -80q-23 -39 -56 -52q-26 -10 -77 -10q-25 0 -58 3q-78 7 -98 7q-47 0 -81 -11l-28 -9q0 68 25 102q30 41 81 84
q31 25 93 77q51 44 78.5 85.5t27.5 91.5q0 37 -16 61q-19 27 -55 27q-24 0 -52 -12q-32 -14 -36 -35q-4 -16 -4 -21q0 -23 23 -40q10 -8 51 -29l-121 -50q-58 30 -58 75q0 7 2 18q13 69 94 113q70 38 147 38q91 0 139 -49q40 -43 40 -106z" />
    <glyph glyph-name="three" unicode="3" horiz-adv-x="504" 
d="M499 609q1 -3 1 -7v-7q0 -91 -132 -131q115 -47 115 -138q0 -87 -90 -134q-73 -38 -168 -38q-106 0 -158 45q-35 30 -35 76q0 15 2 23l1 9l152 47q-36 -75 -36 -96t16 -38t37 -20q14 -2 18 -2h5q49 0 78 42q26 37 26 88q0 78 -54 91q-12 3 -23 3q-12 0 -25 -1l-25 -2
l-8 64h19q13 -1 19 -1q54 0 81 17q51 33 51 99q0 34 -22 57t-57 23t-66 -21q-18 -12 -18 -30q0 -19 22 -56l-98 -42q-30 33 -30 64q0 35 35 69q28 28 66 44q56 23 119 23q118 0 164 -66q13 -20 18 -54z" />
    <glyph glyph-name="four" unicode="4" horiz-adv-x="496" 
d="M511 407l-28 -92l-108 -1l-43 -146l-169 -17q23 57 61 164q-35 0 -115 2l-85 2q3 27 15 67q154 230 336 335l9 3l99 8l-30 -127q-16 -63 -56 -211q29 0 65 6zM327 629q-124 -102 -221 -243l144 2q24 73 77 241z" />
    <glyph glyph-name="five" unicode="5" horiz-adv-x="481" 
d="M474 732l-21 -56q-27 -73 -139 -73q-27 0 -101 9l-29 -98l32 3q11 1 21 1q83 0 141 -34q68 -39 81 -114q3 -17 3 -30q0 -83 -87.5 -136.5t-196.5 -49.5q-65 2 -116 40q-46 34 -46 91v9l130 51l-9 -36q-6 -25 -6 -41q0 -53 49 -66q11 -3 22 -3q36 0 61 25q39 39 45 100
q2 20 2 25q0 76 -74 98q-20 6 -43 6t-85 -13l85 296q56 -19 113 -19q63 0 168 15z" />
    <glyph glyph-name="six" unicode="6" horiz-adv-x="442" 
d="M472 348q-11 -86 -93 -142q-75 -52 -166 -52q-53 0 -107 35q-58 36 -71 86q-12 44 -12 81q0 133 100 240q93 99 227 133l12 3l30 -30l-43 -30q-87 -62 -134 -163q-37 -80 -49 -171q-4 -31 -4 -49q0 -90 62 -90q63 0 90 115q5 21 5 49q0 75 -49 75q-12 0 -29 -6l-22 27
q59 47 100 48q64 1 109 -40t45 -105q0 -6 -1 -14z" />
    <glyph glyph-name="seven" unicode="7" horiz-adv-x="351" 
d="M449 693l-90 -169q-52 -99 -83 -173q-39 -94 -57 -180l-161 -20l3 22q13 95 97 204q22 28 75 88q78 88 113 146q-26 -2 -39 -2q-24 0 -74 6q-41 5 -67 5q-71 0 -83 -51l-3 -13h-58l27 111q26 63 89 63q77 0 193 -15q15 -2 28 -2q25 0 60 13l19 7q11 -25 11 -40z" />
    <glyph glyph-name="eight" unicode="8" horiz-adv-x="482" 
d="M477 567l-39 3q-32 -46 -102 -87q72 -70 86 -117q8 -27 8 -43q0 -56 -61 -109q-69 -60 -166 -60q-63 0 -116 33q-61 37 -61 97q0 56 58 109q24 22 89 58q-63 63 -63 126q0 73 78 118q43 25 106 37l29 -29q-42 -21 -59 -33q-32 -24 -32 -51q0 -24 27 -57q14 -17 41 -44
q25 15 37 25q29 23 44 50q-29 23 -29 65q0 68 59 70q32 1 46.5 -22.5t11.5 -55.5l-9 -39h17q-1 -8 -1 -17q1 -28 1 -27zM305 272q1 4 1 13q0 31 -31 69q-20 25 -63 61q-130 -69 -130 -128q0 -47 58 -73q31 -14 66 -14q38 0 65.5 18.5t33.5 53.5z" />
    <glyph glyph-name="nine" unicode="9" horiz-adv-x="495" 
d="M474 527q0 -133 -100 -240q-94 -99 -228 -133l-12 -3l-30 31q31 20 32 21q32 23 52 41q104 96 139 282q7 37 7 68q0 91 -62 91q-33 0 -60 -43q-20 -31 -30 -72q-5 -21 -5 -48q0 -77 48 -77q13 0 30 6l22 -27q-32 -25 -45 -32q-27 -15 -55 -15q-65 0 -109 39.5t-44 103.5
q0 7 1 16q10 86 92 143q75 51 166 51q58 0 112 -38q79 -56 79 -165z" />
    <glyph glyph-name="equal" unicode="=" horiz-adv-x="168" 
d="M175 -65h-172v201h172v-201z" />
    <glyph glyph-name="A" unicode="A" 
d="M753 714l-34 -41q-70 -84 -117 -211q-46 -121 -46 -233q0 -36 7 -49q10 -20 41 -21q29 -1 56 20q9 7 30 27l45 43l5 -77q-112 -122 -213 -122q-6 0 -20 2q-81 11 -97 120q-102 -121 -188 -121q-36 0 -70 21q-83 51 -83 193q0 153 82 286q125 203 374 203q108 0 183 -25z
M574 683q-39 14 -77 14q-134 0 -214 -177q-59 -131 -59 -237q0 -100 53 -114q8 -2 13 -2q31 0 67 35q18 17 50 59q0 212 167 422z" />
    <glyph glyph-name="B" unicode="B" horiz-adv-x="745" 
d="M741 535q-16 -72 -134 -119q105 -44 105 -153q0 -57 -31 -107t-82 -78.5t-108 -28.5q-90 0 -105 73l84 99v-30q0 -77 15 -83q4 -1 8 -1q31 0 52 96q15 73 15 125q0 14 -1 17q-9 28 -22 38q-9 6 -43 14l8 50q40 6 48 10q23 11 39 48q13 32 13 61q0 84 -65 117
q-34 16 -79 16q-66 0 -135 -32q-76 -35 -106 -88q-9 -16 -9 -34q0 -56 75 -96l-123 -60q-58 46 -58 102q0 23 7 50q27 104 143 165q101 52 219 52q135 0 220 -70q55 -45 55 -114q0 -17 -5 -39zM545 623l-14 -13q-44 -41 -59 -161q-4 -35 -12 -106q-16 -124 -102 -209
q-91 -88 -214 -88q-115 0 -130 116l-4 30l137 71q-16 -56 -16 -105q0 -46 18 -50q9 -3 14 -3h9q98 0 131 253q17 129 52 190q50 88 160 107zM205 136q-15 -12 -34 -12q-4 0 -14 2l-4 3q28 7 52 7z" />
    <glyph glyph-name="C" unicode="C" horiz-adv-x="623" 
d="M604 169l-48 -42q-108 -78 -231 -78q-131 0 -208 87q-45 50 -55 115q-5 32 -5 64q0 130 73 248t190 169q48 21 100 21q53 0 93 -25q73 -45 73 -142q0 -116 -94 -180q-43 -29 -88 -29q-35 0 -63 18.5t-28 57.5q0 45 25 68q19 -39 35 -39q44 -4 75 52q26 48 26 95
q0 59 -34 67q-16 3 -21 3q-43 0 -85 -47q-54 -61 -87 -138q-34 -82 -34 -159q0 -80 39 -138q57 -84 149 -84q85 0 142 58l61 62v-84z" />
    <glyph glyph-name="D" unicode="D" horiz-adv-x="754" 
d="M724 550q14 -45 14 -95q0 -123 -79 -234.5t-195 -150.5q-57 -19 -120 -19q-89 0 -164 36q-31 -18 -48 -26q-30 -13 -55 -13q-27 0 -47 16.5t-20 43.5q0 22 15 43q32 45 108 45q33 0 77 -11q23 22 33 56q5 17 13 66q17 107 27 141q22 76 66 118t121 64l33 -42
q-53 -42 -68 -115q-7 -46 -23.5 -137.5t-79.5 -147.5q-14 -12 -42 -32q39 -16 63 -24q35 -11 60 -11q67 0 105 70q60 110 60 247q0 206 -149 252q-23 7 -50 7q-76 0 -142 -45q-72 -51 -72 -124q0 -53 82 -76l-118 -66q-74 38 -74 111q0 47 32 97q27 43 69 76q106 84 251 84
q82 0 153 -30q124 -53 164 -174z" />
    <glyph glyph-name="E" unicode="E" horiz-adv-x="584" 
d="M579 175q-70 -63 -126 -91q-70 -36 -148 -36q-84 0 -145 34q-70 39 -93 114q-7 23 -7 46q0 52 35 101q32 46 81 72q30 16 71 27q-77 44 -77 121q0 21 6 43q18 68 95 111q68 39 144 39q87 0 124 -46q16 -20 23 -56l-78 -89q0 45 -18 84q-23 48 -63 48q-42 0 -69 -51
q-23 -43 -23 -89q0 -15 2 -24q8 -37 51 -49q25 -7 76 -7l-25 -89q-42 7 -67 7q-92 0 -121 -84q-8 -23 -8 -48q0 -54 32 -92q33 -41 86 -42q5 0 12 -1h7q94 0 210 121z" />
    <glyph glyph-name="F" unicode="F" horiz-adv-x="601" 
d="M627 771q-17 -70 -21 -79q-23 -53 -71 -63q-26 -6 -58 -6h-29q-18 0 -49 1q-34 2 -48 2q-91 1 -130 -34q-23 -21 -23 -48q0 -36 38 -60q8 -5 48 -23l-82 -76q-79 32 -79 93q0 21 6 47q20 88 85.5 153t152.5 77q7 1 20 1q23 0 38 -1l34 -4q57 -6 76 -6q37 0 40 13l4 17z
M601 484l-8 -113q-64 -32 -115 -48q-33 -185 -185 -253q-54 -24 -112 -24q-119 0 -138 89q-1 4 -8 57l136 71q-11 -48 -11 -98q0 -51 20 -58q12 -5 21 -5q45 0 79 68q24 48 36 113q-25 -9 -48 -22q-14 -7 -46 -28q-1 3 -1 14q0 57 27 82q24 23 82 50q10 72 22 109
q19 59 54 97l12 7l111 13l-18 -33q-26 -48 -26 -139q45 14 116 51zM233 136q-16 -14 -33 -14q-7 0 -16 3q-4 6 -4 9l29 2h24z" />
    <glyph glyph-name="G" unicode="G" horiz-adv-x="747" 
d="M741 259q-3 -46 -3 -48q-3 -31 -10 -47q-49 -47 -119 -83q-25 -110 -61 -165q-49 -74 -142 -95q-18 -4 -36 -4q-38 0 -62 19q-27 20 -27 57q0 16 5 33q24 82 167 149l19 66q-81 -77 -170 -77q-62 0 -110 43q-44 39 -66 102q-17 48 -17 105q0 143 96 266q58 74 139 121
q90 51 176 51q51 0 96 -20q50 -21 75.5 -61.5t25.5 -91.5q0 -64 -37.5 -119t-96.5 -80q-35 -15 -70 -15q-50 0 -79 30t-29 81l54 43q14 -32 16 -36q13 -21 29 -21q7 0 14 3q34 15 58 63q23 45 23 85t-23 64t-62 24q-41 0 -86 -30q-39 -25 -68 -63q-43 -56 -72 -137t-29 -150
q0 -59 24 -100q31 -52 90 -52q92 0 173 131l130 17l-20 -60q-22 -66 -31 -102q20 13 46 36q17 15 70 68zM434 0q-45 -24 -64 -41q-37 -32 -37 -64q0 -17 16 -19q49 -8 85 124z" />
    <glyph glyph-name="H" unicode="H" horiz-adv-x="873" 
d="M864 260l-2 -88q-110 -123 -209 -123q-49 0 -85 34q-60 57 -60 163q0 49 11 96l-69 -4q-38 -186 -147 -250q-61 -36 -140 -36q-66 0 -109 28q-50 32 -55 95l117 89v-26q-1 -18 -1 -27q0 -107 53 -107q10 0 18 2q77 20 106 208q-32 -10 -59 -25q-18 -10 -54 -34l-5 65
q62 53 130 75q10 68 50 131q23 37 88 112q-25 -5 -40 -5q-23 0 -37 3q-17 5 -50 12q-15 3 -23 3q-39 0 -60 -36q-12 -19 -12 -36q0 -33 60 -70l-70 -73q-69 40 -69 112q0 70 63 137q28 30 74.5 49.5t88.5 18.5q17 -1 51.5 -11.5t50.5 -10.5q28 0 64 25l55 -31
q-41 -49 -53 -66q-41 -56 -58 -165l-12 -72l77 5q57 173 150 289l11 7l158 37l-87 -150q-44 -79 -71 -159q41 13 96 46l19 -53q-63 -60 -140 -81q-17 -64 -17 -116q0 -75 40 -90q11 -4 23 -4q35 0 78 40q2 2 62 67z" />
    <glyph glyph-name="I" unicode="I" horiz-adv-x="503" 
d="M606 725l-15 -17q-22 -25 -45 -59q-29 -43 -45 -115q0 -2 -20 -122q-22 -129 -48 -190q-73 -170 -252 -170q-67 0 -109 28q-49 32 -55 95l117 89q0 -9 -1 -28t-1 -29q0 -103 49 -103q90 0 123 179q7 48 24 143q11 55 52 114q17 25 80 98l-13 -3q-9 -2 -22 -2q-18 0 -42 5
q-57 12 -70 12q-42 0 -63 -34q-12 -20 -12 -37q0 -33 60 -70l-70 -73q-67 39 -67 110q0 75 66 142.5t158 64.5q17 -1 51.5 -11.5t50.5 -10.5q28 0 64 25zM224 136q-16 -13 -41 -13q-11 2 -17 9q22 4 44 4h14z" />
    <glyph glyph-name="J" unicode="J" horiz-adv-x="578" 
d="M585 209l-25 -40q-18 -29 -77 -59q-25 -13 -91 -39q-9 -25 -16 -42q-35 -83 -118 -125q-56 -28 -112 -28q-92 0 -92 57q0 55 106 110q40 21 87 37q11 46 22 123q6 43 14 119q3 35 14 104q15 60 52 114q17 25 80 98l-13 -3q-9 -2 -23 -2q-18 0 -42 5q-57 12 -69 12
q-42 0 -63 -34q-12 -20 -12 -37q0 -33 60 -70l-70 -73q-48 27 -60 73q-6 23 -6 39q0 76 66.5 141t142.5 65q9 -1 14 -1q51 -12 102 -23q27 0 54 19l10 7l55 -31q-41 -49 -53 -66q-27 -37 -39 -79q-8 -25 -17.5 -85.5t-15.5 -108.5l-12 -95q-11 -78 -28 -153q100 45 123 90z
M227 12q-42 -18 -64 -31q-41 -24 -49 -45q-3 -7 12 -7q21 0 38 6q39 14 63 77z" />
    <glyph glyph-name="K" unicode="K" horiz-adv-x="834" 
d="M825 211q5 -25 5 -30q0 -7 -23 -31q-99 -101 -185 -101q-46 0 -78 32q-39 39 -39 109q0 22 7 76q3 23 4 29v21q0 32 -11 49q-22 0 -29 2q-13 4 -17 20q-43 -235 -164 -303q-59 -33 -140 -33q-68 0 -111 27q-51 33 -51 97l116 89q0 -9 -1 -31l-1 -25q0 -104 50 -104
q89 0 121 179q7 48 25 143q12 54 52 114q27 40 81 98q-16 -4 -37 -4q-22 0 -63.5 11.5t-63.5 11.5q-35 0 -56 -29q-12 -16 -12 -37q0 -48 58 -84l-70 -74q-72 41 -72 117q0 77 69.5 140.5t147.5 63.5q24 0 64.5 -12.5t57.5 -12.5q30 0 67 27l55 -31q-15 -18 -39 -49
q-36 -48 -48 -92q-11 -40 -29 -165q6 8 50 16q41 7 55 41q31 110 53 167q44 112 109 112q46 0 72 -33q12 -15 12 -35q0 -7 -1 -10l-51 -90q-15 45 -50 45q-24 0 -40 -43q-1 -4 -16 -63q-24 -96 -76 -123q50 -27 66 -78q10 -34 10 -105.5t35 -71.5q37 0 98 71q22 26 25 26
q3 -5 9 -34z" />
    <glyph glyph-name="L" unicode="L" horiz-adv-x="655" 
d="M644 251l-1 -78q-121 -121 -237 -121q-60 0 -128 31q-43 20 -93 37q-60 -70 -112 -70q-33 0 -48 21q-10 13 -10 31q0 50 58 82q35 19 81 27q41 64 41 160q0 210 125 319q75 65 151 65q46 0 84 -24.5t57 -65.5q16 -36 16 -75q0 -54 -26 -102t-72 -73q-29 -16 -57 -16
q-49 0 -65 40q-8 17 -8 41q0 9 1 19l2 19q34 -14 48 -14q26 0 44 30q24 40 24 89q0 65 -46 75q-9 2 -17 2q-45 0 -69 -65q-14 -38 -24 -108q-14 -109 -15 -112q-21 -116 -88 -198q26 0 57 -10l78 -30q46 -17 80 -17q52 0 101 32l24 20z" />
    <glyph glyph-name="M" unicode="M" horiz-adv-x="1003" 
d="M1000 178q-115 -126 -210 -126q-70 0 -99 85q-19 56 -19 124q0 145 77 327q-42 -62 -86 -176q-62 -162 -73 -184q-47 -100 -113 -163q-25 -11 -106 -14q15 73 20 171l10 195q5 97 19 171q-21 -54 -52 -181q-29 -118 -55 -179q-40 -94 -107 -144q-42 -32 -88 -32
q-44 0 -72.5 29.5t-34.5 74.5l123 112q-7 -40 -7 -70q0 -58 29 -61q59 -6 110 122q26 66 54 185q20 86 28 112q32 104 109 196l112 4q-22 -83 -22 -233v-52v-26q1 -20 1 -26q1 -97 -11 -171q27 51 75 177q43 112 79 175q53 92 128 144l128 16q-130 -353 -130 -508
q0 -93 50 -93q32 0 81 50q17 18 41 43z" />
    <glyph glyph-name="N" unicode="N" horiz-adv-x="734" 
d="M829 643q-52 0 -78 -24q-21 -20 -38 -74q-13 -43 -31 -132q-43 -215 -121 -352l-112 -13q0 122 -17 202q-31 146 -48 286l-67 -234q-33 -115 -65 -165q-55 -86 -145 -86q-95 0 -106 106l107 95q0 -116 47 -124q40 -7 83 102q19 48 44 140q11 42 32 125q33 128 75 247
l124 16q0 -73 11 -164q9 -77 26 -163l18 -95q10 -61 14 -96q12 30 23 73q3 13 27 127q31 149 46 191q44 123 113 123q35 0 49 -17q9 -12 9 -30q0 -26 -20 -64z" />
    <glyph glyph-name="O" unicode="O" horiz-adv-x="664" 
d="M627 603q0 37 -3 52q-7 35 -29 38q-41 6 -78 -58q-33 -57 -33 -101q0 -25 18 -32q10 -4 40 -4q-31 -88 -82 -88q-12 0 -19 2q-63 18 -63 94q0 78 58 160q62 89 137 89q69 0 97 -64q14 -34 14 -79q0 -77 -40 -184q-69 -185 -187 -292q-97 -88 -185 -88q-51 0 -94 29
t-62.5 77t-19.5 111q0 88 34 180q68 182 206 292l155 31q-59 -59 -86 -89q-47 -52 -75 -99q-80 -134 -80 -293q0 -131 84 -131q71 0 144 88q149 179 149 359z" />
    <glyph glyph-name="P" unicode="P" horiz-adv-x="662" 
d="M561 397q-33 0 -56 44q82 82 82 156q0 65 -60 93q-31 14 -69 14q-60 0 -124 -32q-67 -34 -95 -83q-17 -30 -17 -52q0 -30 36 -53q4 -2 44 -25l-122 -59q-59 47 -59 99q0 21 7 48q25 98 131 158q94 53 204 53q35 0 70 -8q71 -16 113 -63q44 -50 44 -120t-41 -120t-88 -50z
M564 633q-32 -31 -45 -59.5t-20 -75.5l-16 -105q0 -103 -51 -186t-144 -126q-54 -25 -113 -25q-118 0 -137 89q-1 4 -8 57l136 72q-16 -77 -16 -106q0 -46 19 -50q9 -3 14 -3h9q98 0 131 252q16 127 52 191q50 89 159 108z" />
    <glyph glyph-name="Q" unicode="Q" horiz-adv-x="676" 
d="M670 198l-24 -25q-43 -45 -82 -76q-55 -44 -99 -44q-38 0 -69 30q-18 16 -36 42q-94 -74 -169 -74q-49 0 -90 29.5t-59 75.5q-21 50 -21 113q0 84 34 177q66 181 206 292l149 23l-39 -37q-88 -83 -141 -197q-55 -118 -55 -238q0 -112 67 -130q11 -3 23 -3q31 0 61 20
q-17 24 -21 28q-14 13 -31 13q-6 0 -15 -3l-22 30q41 53 90 53q44 0 82 -44q144 178 144 351q0 37 -3 52q-7 36 -30 39q-40 5 -77 -59q-33 -56 -33 -100q0 -28 20 -33q16 -4 37 -4q-29 -88 -82 -88q-12 0 -19 2q-50 14 -60 68q-2 7 -2 15v12q0 78 58 160q62 88 137 88
q32 0 58.5 -19t38.5 -49q13 -34 13 -79q0 -86 -46 -201q-44 -111 -119 -200q10 -15 13 -19q26 -34 56 -34q42 0 99 64z" />
    <glyph glyph-name="R" unicode="R" horiz-adv-x="799" 
d="M792 176q-57 -62 -89 -86q-57 -43 -112 -43q-8 0 -17 1q-91 10 -91 130q0 27 7 63q5 31 11 63q3 19 3 26q0 38 -22 38l-20 -2l-3 44q-21 -253 -197 -332q-53 -24 -112 -24q-119 0 -138 89q-1 4 -8 57l137 71q-16 -59 -16 -104q0 -47 19 -51q10 -3 23 -3q96 0 130 254
q17 128 52 189q50 88 160 107l30 -32q-32 -31 -44.5 -57.5t-20.5 -73.5q-4 -24 -13 -71h20q13 -1 20 -1q62 0 83 37q26 49 26 109q0 80 -73 112q-37 16 -85 16q-68 0 -135 -30q-74 -33 -105 -86q-17 -30 -17 -51q0 -26 25 -45q6 -4 57 -33l-123 -60q-58 46 -58 102
q0 24 7 50q28 104 148 161q99 47 222 47q109 0 186 -39q99 -49 99 -148q0 -134 -163 -181q47 -47 47 -124q0 -11 -10 -76q-1 -7 -1 -18q0 -31 25 -26q42 9 85 60l40 50z" />
    <glyph glyph-name="S" unicode="S" horiz-adv-x="524" 
d="M558 658l-92 -125q-15 74 -22 94q-21 59 -58 67q-19 4 -29 4q-31 0 -55.5 -25t-24.5 -56q0 -38 43 -88q38 -38 110 -116q55 -65 64 -124q1 -7 1 -22q0 -62 -44 -117q-40 -51 -100 -77q-49 -21 -109 -21q-150 0 -196 104l-4 9l104 166l7 -70q7 -70 14 -91q20 -62 87 -62
q48 0 84 33.5t36 80.5q0 25 -16 47q-7 10 -36 38q-80 78 -103 108q-51 67 -51 135q0 18 2 31q12 78 73 127t141 49q75 0 126 -43q19 -16 48 -56zM293 136q-16 -8 -41 -8q-13 0 -19 2q-9 1 -17 6h77z" />
    <glyph glyph-name="T" unicode="T" horiz-adv-x="530" 
d="M669 757q-17 -68 -21 -78q-22 -52 -67 -64q-26 -7 -67 -6l-204 3q-43 1 -77 -14q-43 -18 -53 -54q-2 -12 -2 -16q0 -42 87 -81l-82 -76q-31 13 -42 20q-41 26 -41 93v13q2 11 2 16q10 89 84 155q70 62 162 73q8 1 18 1q14 0 43 -2t43 -2q28 0 73 -2l48 -3q41 0 44 12
l4 16zM523 605l-19 -33q-26 -45 -26 -141v-47q0 -108 -62 -202q-88 -134 -242 -134q-142 0 -142 115q0 9 -4 29l137 72q-7 -26 -11 -47q-6 -28 -6 -48q0 -13 2 -20.5t2 -11.5q5 -26 18 -29t19 -3q54 0 95 91q20 45 33 132q16 114 22 137q19 75 60 121l12 6zM220 136
q-14 -11 -33 -11q-8 0 -12 1q-5 5 -5 7l41 3h9z" />
    <glyph glyph-name="U" unicode="U" horiz-adv-x="748" 
d="M757 198q-2 -3 -11 -17q-29 -45 -94 -89q-57 -39 -104 -39q-53 0 -85 41q-26 35 -32 91q-48 -84 -109 -115q-35 -18 -70 -18q-96 0 -116 106q-5 26 -5 50q0 63 28 150q19 61 28 85q13 34 31.5 87t18.5 88q1 10 1 14q0 27 -11 44q-14 22 -39 18q-32 -5 -59.5 -37.5
t-33.5 -66.5q-2 -10 -2 -22q0 -39 29 -71q4 -4 26 -19l-80 -79q-22 21 -44 43q-24 36 -24 84q0 83 66.5 156t148.5 73q11 0 20 -1q54 -6 93 -52t39 -131q0 -68 -28 -163q-14 -48 -49 -142q-17 -46 -17 -81q0 -42 29 -42q47 0 91 88q24 48 49 131q11 38 39 142q40 152 72 235
l147 17q-62 -213 -93 -347q-19 -81 -34 -170q-3 -18 -3 -40q0 -49 25 -54q35 -7 76 36q15 17 37 40z" />
    <glyph glyph-name="V" unicode="V" horiz-adv-x="630" 
d="M584 762q51 -71 51 -176q0 -123 -73 -292q-41 -94 -103 -160q-80 -85 -166 -85q-93 0 -138 92q-19 39 -19 92q0 62 22 130q16 45 48 138q23 70 30 120q1 8 1 15q0 57 -44 57q-25 0 -51 -23q-22 -20 -36 -47t-14 -56q0 -40 29 -70q3 -4 26 -19l-80 -79q-22 21 -44 43
q-24 37 -24 85q0 83 67 156.5t149 73.5q63 0 111 -54q41 -46 41 -131q0 -86 -40 -201q-15 -41 -37 -101q-13 -37 -13 -73q0 -61 43 -70q7 -2 15 -2q44 0 94 58q36 42 59 92q48 105 48 194q0 101 -61 205l-10 17z" />
    <glyph glyph-name="W" unicode="W" horiz-adv-x="901" 
d="M863 761q56 -68 56 -168q0 -111 -76 -275q-45 -98 -115 -172q-90 -95 -174 -95q-99 0 -118 130q-86 -131 -178 -131q-30 0 -57 15q-66 36 -66 136q0 44 15 105l48 147q11 36 24 80q19 66 19 100q0 43 -21 56q-12 6 -20 6q-18 0 -45 -22q-55 -45 -55 -102t55 -93l-80 -79
l-22 20q-27 24 -37 48q-12 28 -12 59q0 84 66 157.5t149 73.5q65 0 115 -54q39 -42 39 -122q0 -78 -41 -204q-17 -48 -47 -146q-8 -30 -8 -48q0 -34 21 -40q10 -3 13 -3q38 0 85 90q30 60 50 124l119 387l142 7q-21 -66 -42 -141q-3 -10 -38 -143l-28 -106
q-24 -101 -24 -156q0 -56 24 -61q3 -1 10 -1q55 0 133 117q72 108 72 215q0 102 -67 220z" />
    <glyph glyph-name="X" unicode="X" horiz-adv-x="767" 
d="M746 169q-136 -118 -234 -118q-71 0 -125 59q-38 42 -47 116q-84 -163 -185 -174q-5 -1 -15 -1q-65 0 -98 87l107 101q3 -15 10 -46q11 -43 43 -43q50 0 106 146q28 73 62 205q7 25 11 50q7 39 7 61q0 56 -27 75q-15 9 -32 9q-43 0 -77 -44.5t-34 -88.5q0 -45 41 -71
l22 -14l-85 -78q-56 42 -55 52q-19 34 -19 73q0 84 75.5 157.5t160.5 73.5q9 -1 14 -1q59 0 101 -44.5t42 -104.5q77 149 149 149q37 0 74 -51l8 -11l-77 -97l-15 30q-8 16 -18 24q-4 4 -10 4q-12 0 -27 -18q-7 -8 -13 -18q-41 -65 -73 -179q-36 -129 -36 -181
q0 -85 53 -109q20 -9 40 -9q44 0 96 40q21 16 77 72z" />
    <glyph glyph-name="Y" unicode="Y" horiz-adv-x="782" 
d="M789 200q-35 -53 -82 -82q-32 -20 -112 -48q-90 -244 -239 -252q-41 -2 -72.5 18.5t-31.5 59.5q0 9 1 15q11 66 76 110q39 26 126 58l62 243q-65 -149 -138 -215q-53 -48 -106 -48q-121 0 -121 131q0 59 24 150q7 26 48 156q27 87 32 124q1 8 1 15q0 23 -12 40.5
t-34 17.5q-23 0 -47 -20q-55 -45 -55 -102t55 -93l-80 -79q-22 21 -43 43q-25 39 -25 89q0 83 65.5 155t147.5 72q66 0 114 -55q42 -48 42 -133q0 -82 -39 -198q-17 -47 -48 -141q-11 -38 -11 -61q0 -29 17 -33q69 -15 174 233q7 15 44 110q45 114 51 131q29 75 45 133
l146 16q-8 -32 -45 -206q-30 -140 -46 -208q-26 -112 -54 -205q45 20 66 34q27 18 54 50zM438 15q-119 -49 -130 -104q-1 -5 -1 -12q0 -21 17 -25q8 -1 14 -1q57 0 100 142z" />
    <glyph glyph-name="Z" unicode="Z" horiz-adv-x="660" 
d="M659 197q-112 -144 -251 -144q-29 0 -53 6q-14 3 -73 26q-46 18 -72 18q-47 0 -59 -51l-72 2l7 24q28 96 109 200q41 52 155 167q103 104 154 169q-23 -5 -43 -5q-28 0 -66 8q-33 7 -65 15q-24 4 -44 4q-58 0 -74 -40q-3 -7 -3 -14q0 -19 21 -40q1 -1 38 -33l-76 -77
q-55 48 -55 104q0 35 19 75q30 62 83 101q58 42 123 42h12q10 -2 14 -2l134 -24q46 0 76 32l44 -15l-8 -19q-40 -94 -116 -187q-33 -40 -151 -163q-97 -101 -144 -170q39 11 75 11q32 0 64 -8q13 -3 59 -19q67 -23 91 -23q45 0 95 52z" />
    <glyph glyph-name="underscore" unicode="_" horiz-adv-x="373" 
d="M381 -65h-382v201h382v-201z" />
    <glyph glyph-name="grave" unicode="`" horiz-adv-x="390" 
d="M214 660l-26 -12q-112 74 -152 154l-6 12l107 18l1 -10q7 -72 76 -162z" />
    <glyph glyph-name="a" unicode="a" horiz-adv-x="502" 
d="M514 262l-98 -70q-35 -19 -66 -19q-53 0 -75 43q-11 19 -14 44q-69 -85 -154 -85q-24 0 -45 8q-74 28 -74 111t83 149q77 62 162 62q54 0 83 -39l82 35q9 4 34 4h20l-54 -153q-13 -37 -13 -64q0 -35 27 -35q22 0 58 22q4 3 44 31v-44zM272 411q0 45 -30 45q-43 0 -81 -55
q-34 -51 -34 -97q0 -42 34 -42q56 0 95 83q16 35 16 66z" />
    <glyph glyph-name="b" unicode="b" horiz-adv-x="421" 
d="M428 261q-29 -25 -75 -25q-43 0 -81 24q-84 -84 -164 -84q-73 0 -101 55q-16 31 -16 73q0 71 48 188q38 93 96 184l155 31q5 1 13 1q47 0 47 -62q0 -21 -8 -41q-21 -52 -79 -109q-39 -38 -117 -98q-17 -71 -17 -97q0 -38 21 -41q40 -7 84 35q-25 32 -25 75q0 79 65 120
q22 14 46 14q46 0 51 -36q2 -14 2 -23q0 -63 -69 -147q16 -15 46 -15q43 0 78 23v-45zM285 611q8 17 8 27q0 12 -11 12q-22 0 -41 -30q-26 -40 -64 -134q79 64 108 125z" />
    <glyph glyph-name="c" unicode="c" horiz-adv-x="354" 
d="M366 266q-63 -44 -76 -52q-68 -42 -139 -42h-15q-12 2 -18 2q-56 6 -92 42t-36 92q0 55 37 102q33 43 86 69q50 24 103 24q45 0 75 -19q34 -23 34 -66v-15l-123 -35q11 39 11 55q0 30 -24 30q-45 0 -67 -61q-9 -24 -9 -48q0 -46 31 -70q23 -19 73 -19q57 0 149 55v-44z
" />
    <glyph glyph-name="d" unicode="d" horiz-adv-x="513" 
d="M516 259q-52 -38 -77 -53q-54 -32 -91 -32q-52 0 -71 46q-8 19 -11 43q-29 -35 -73 -60q-48 -27 -90 -27q-59 0 -93 52q-19 29 -19 67q0 88 103 161q71 50 137 50q37 0 64 -17q25 102 51 204l146 24q-57 -204 -89 -361q-9 -44 -9 -67q0 -30 20 -30q19 0 53 16
q30 14 49 29v-45zM275 412q0 45 -31 45q-43 0 -80 -56q-34 -51 -34 -96q0 -42 34 -42q56 0 95 82q16 35 16 67z" />
    <glyph glyph-name="e" unicode="e" horiz-adv-x="357" 
d="M365 263q-4 -3 -48 -34q-31 -22 -51 -31q-50 -22 -110 -22q-81 0 -128 43q-38 35 -38 86q0 45 28 92q25 41 70.5 70.5t94.5 36.5q14 2 28 2q71 0 102 -47q10 -15 10 -32q0 -45 -73 -81q-32 -16 -61 -25q-20 -6 -62 -17q29 -60 88 -60q41 0 82 21q2 1 68 43v-45zM213 419
q1 4 1 12q0 26 -22 26q-3 0 -11 -2q-30 -7 -48 -40q-16 -29 -16 -63q41 11 61 22q31 17 35 45z" />
    <glyph glyph-name="f" unicode="f" horiz-adv-x="426" 
d="M432 260q-28 -18 -86 -54q-49 -29 -95 -29q-22 0 -43 7q-8 -50 -23 -165l-136 -18l48 330q-49 -49 -104 -80v45q71 51 116 106q35 164 100 267l10 8q41 15 54 19q36 11 62 11q72 0 72 -84q0 -59 -54 -118q-31 -34 -102 -86l-32 -170q13 -16 39 -16q40 0 115 40
q19 11 59 32v-45zM339 651q-26 5 -47 -57q-3 -9 -24 -95q39 33 56 53q30 36 30 68q0 5 -1 12q-3 11 -4 12q-2 5 -10 7z" />
    <glyph glyph-name="g" unicode="g" horiz-adv-x="479" 
d="M485 262q-73 -50 -139 -72q-56 -160 -181 -184q-16 -3 -33 -3q-81 0 -98 58q-3 10 -3 19q0 64 95 98q39 14 97 29l7 28q-58 -47 -118 -47q-67 0 -101 51q-20 30 -20 68q0 91 102 155q71 44 137 44q47 0 76 -29l115 34q-17 -58 -30 -133l-12 -65q-5 -24 -14 -62
q68 23 120 56v-45zM263 445q-9 12 -24 12q-32 0 -63 -35q-27 -30 -39 -65q-7 -21 -7 -41q0 -43 36 -43q47 0 83 64q14 80 14 108zM207 151q-122 -34 -122 -75q0 -28 35 -28q39 0 62 43q13 24 25 60z" />
    <glyph glyph-name="h" unicode="h" horiz-adv-x="465" 
d="M479 262q-65 -45 -84 -55q-57 -32 -98 -32q-55 0 -80 40q-12 17 -12 38q0 29 22 79l33 75q2 5 2 10q0 3 -10 3q-35 -5 -78 -36q-8 -6 -39 -33q-4 -28 -4 -69q0 -15 1 -44.5t1 -44.5l-122 -20q-16 67 -16 134q0 179 132 353q20 13 54 24l58 16q25 8 42 8q30 0 48 -24
q5 -8 5 -13q5 -17 5 -30q0 -40 -27 -86q-16 -27 -54 -72q49 20 76 20q46 0 63 -29q8 -15 8 -36q0 -32 -17 -75l-39 -99q0 -10 15 -10q21 0 61 21q21 11 54 32v-45zM278 616q3 11 3 17q0 10 -7 10q-8 0 -25.5 -15.5t-24.5 -26.5q-44 -62 -68 -152q52 51 72 76q39 48 50 91z
" />
    <glyph glyph-name="i" unicode="i" horiz-adv-x="230" 
d="M214 648q0 -60 -25 -86t-74 -26q-35 0 -68 17l-23 12q20 20 27 28q13 15 21 35l7 18q36 -16 61 -19q20 -3 74 21zM240 262q-5 -3 -57 -41q-63 -46 -104 -46q-55 0 -78 45q-13 25 -13 60q0 45 26 124q11 33 30 79l148 23l-26 -71q-11 -27 -29 -82q-13 -43 -13 -63
q0 -24 25 -24q28 0 91 41v-45z" />
    <glyph glyph-name="j" unicode="j" horiz-adv-x="361" 
d="M340 648q0 -60 -24.5 -85.5t-75.5 -25.5q-30 0 -50 8q-10 4 -40 20q23 23 28 29q13 16 20 34l7 18q33 -12 35 -13q19 -6 37 -6t33 7zM361 261q-50 -36 -101 -60q-24 -178 -143 -199q-11 -2 -18 -2q-37 0 -62.5 24t-25.5 61q0 9 1 13q8 64 116 106l17 187q-47 -54 -70 -76
q-37 -36 -86 -67v46q90 57 182 195l128 16q-8 -50 -21 -151q-7 -57 -11 -91q34 14 46 19q26 12 48 24v-45zM123 147q-52 -27 -58 -63q-2 -9 4 -20.5t15 -13.5q39 -10 39 97z" />
    <glyph glyph-name="k" unicode="k" horiz-adv-x="473" 
d="M475 260q-59 -41 -83 -55q-54 -30 -96 -30q-26 0 -46 10q-45 22 -45 75q0 6 2.5 19.5t2.5 19.5q0 18 -13 18q-28 0 -33 20q-4 13 -4 15q0 21 38 21q27 0 54 8q36 11 39 32q4 27 -43 27q-43 0 -105 -58q-12 -67 -12 -189l-122 -20q-16 68 -16 133q0 170 135 354l127 41
q19 6 37 6q54 0 61 -52q1 -7 1 -13q0 -36 -30 -79q-16 -23 -56 -63q21 3 47 3q106 0 106 -70q0 -62 -107 -87q25 -15 25 -57q0 -25 11 -32q7 -5 18 -5q17 0 41 12q10 5 66 41v-45zM290 617q4 13 4 17q0 9 -7 9q-20 0 -53 -35q-36 -38 -68 -137l30 28q38 35 56 56
q29 33 38 62z" />
    <glyph glyph-name="l" unicode="l" horiz-adv-x="327" 
d="M325 261q-126 -88 -204 -88q-84 0 -114 72q-15 33 -15 77q0 20 4 47q11 73 51 168q38 89 65 127l5 7l110 31q11 3 19 3q48 0 48 -70q0 -85 -49 -159q-35 -53 -115 -123q0 -45 3 -59q8 -37 35 -42q11 -2 19 -2q32 0 73 19q24 11 65 37v-45zM240 613q0 38 -11 34
q-22 -9 -55 -105q-19 -54 -31 -106q97 99 97 177z" />
    <glyph glyph-name="m" unicode="m" horiz-adv-x="696" 
d="M704 263q-81 -56 -106 -68q-39 -19 -70 -19q-23 0 -43 8q-43 17 -43 73q0 39 37 147l2 10q-20 -3 -64 -39t-49 -54l-33 -130l-144 -19q39 117 57 233q2 13 -2 13q2 0 -18 -10q-42 -27 -103 -90q-6 -36 -6 -69q0 -24 1 -35q3 -14 3 -21l-121 -19q-13 53 -13 103
q0 48 14 97q9 33 40 103l4 9l139 23q-12 -30 -19 -48l-18 -48q101 91 168 91q50 0 69 -28q8 -13 8 -31q0 -15 -2 -23q93 81 157 81q48 0 68 -31q10 -17 10 -39q0 -37 -23 -91q-31 -73 -31 -79q0 -11 16 -11q18 0 45 13q15 7 70 43v-45z" />
    <glyph glyph-name="n" unicode="n" horiz-adv-x="422" 
d="M471 263q-67 -49 -83 -58q-52 -31 -95 -31q-56 0 -81 40q-12 17 -12 39q0 30 21 79l32 75q-1 4 -1 9q-15 -6 -19 -9q-47 -30 -104 -89q-6 -36 -6 -71q0 -27 3 -54l-121 -19q-14 56 -14 107q0 64 28 135q12 29 31 70l139 23q-1 -2 -19 -48q-12 -31 -18 -49q99 91 172 91
q48 0 65 -29q8 -15 8 -36q0 -31 -17 -74l-39 -100q0 -10 15 -10q25 0 76 30q10 6 39 24v-45z" />
    <glyph glyph-name="o" unicode="o" horiz-adv-x="425" 
d="M433 262q-47 -30 -90 -30q-32 0 -63 16q-61 -72 -152 -72q-68 0 -109 49q-32 38 -32 84q0 77 67 135q47 41 112 52q36 13 76 13q71 0 93 -36q11 -20 11 -47q0 -56 -39 -134q23 -15 49 -15q32 0 77 30v-45zM236 279q-44 46 -44 98q0 49 40 85q-46 0 -76 -42
q-27 -36 -29 -85q-2 -32 8 -58q12 -32 39 -32q20 0 39 14q12 9 23 20z" />
    <glyph glyph-name="p" unicode="p" horiz-adv-x="530" 
d="M538 264q-39 -29 -110 -56q-82 -31 -144 -31q-53 0 -82 22q-15 -84 -28 -180l-139 -19q21 167 59 333q-41 -43 -93 -75v45q84 57 143 187l122 16l-10 -45q61 53 116 53q57 0 91 -49q31 -44 31 -103q0 -50 -25 -93q21 9 43 22q7 4 26 17v-44zM318 421q-41 0 -71 -51
q-26 -44 -26 -89q0 -55 40 -55q41 0 72 53q26 46 26 90q0 52 -41 52z" />
    <glyph glyph-name="q" unicode="q" horiz-adv-x="505" 
d="M512 263q-55 -46 -112 -115q-37 -44 -97 -129l-136 -16l72 229q-72 -56 -143 -56q-63 0 -92 51q-16 28 -16 59q0 49 38 102q32 46 79 76q67 44 135 44q62 0 90 -46l77 42l47 3l-96 -321q66 74 154 122v-45zM249 456q-46 0 -88.5 -55.5t-42.5 -103.5q0 -40 37 -40
q46 0 89 57q41 53 41 101q0 41 -36 41z" />
    <glyph glyph-name="r" unicode="r" horiz-adv-x="358" 
d="M364 262l-17 -12q-51 -36 -73 -48q-49 -27 -87 -27q-56 0 -78 45q-8 16 -8 35q0 41 42 108q-12 -3 -39 -8q-39 -54 -110 -105v49q44 23 44 62q-35 16 -35 57q0 36 29 62t66 26q51 0 51 -50q0 -19 -9 -39q58 15 106 86l63 2l-61 -150q-17 -42 -17 -64q0 -26 31 -26
q40 0 102 42v-45z" />
    <glyph glyph-name="s" unicode="s" horiz-adv-x="299" 
d="M372 264q-43 -32 -110 -58q-80 -31 -142 -31q-74 0 -107 41l-12 15l88 76q15 -34 16 -35q19 -37 48 -37q21 0 41 15t20 36q0 17 -29 51q-21 25 -45 53q-67 -83 -145 -138v46q94 60 135 184l5 10l136 17q-19 -36 -19 -52q0 -20 40 -64q26 -28 26 -51q0 -44 -28 -78
q21 8 82 44v-44z" />
    <glyph glyph-name="t" unicode="t" horiz-adv-x="275" 
d="M295 264q-58 -42 -85 -58q-53 -30 -96 -30q-26 0 -44 8q-68 30 -68 104q0 35 15 95q3 12 11 35l-34 -2l20 79l41 2l39 107l148 26l-42 -126l67 3l-18 -75l-74 -5l-16 -47q-19 -56 -19 -81q0 -43 37 -43q29 0 68 22q23 14 50 30v-44z" />
    <glyph glyph-name="u" unicode="u" horiz-adv-x="493" 
d="M503 264q-74 -60 -133 -80q-19 -7 -34 -7q-90 0 -107 67q-86 -69 -154 -69q-96 0 -96 106q0 41 13 90q9 30 40 113l147 25l-21 -60q-11 -31 -28 -82t-17 -82q0 -32 21 -32q25 0 54 25q15 13 42 46q7 40 30 101l23 61l149 22l-50 -148q-11 -31 -16 -59q-2 -11 -2 -16
q0 -24 22 -24q8 0 15 2q56 16 102 46v-45z" />
    <glyph glyph-name="v" unicode="v" horiz-adv-x="440" 
d="M443 260q-41 -26 -81 -26q-35 0 -70 20q-80 -80 -169 -80q-83 0 -114 64q-13 25 -13 57q0 47 28 121q11 29 27 69l149 24q-1 -5 -8 -26.5t-18 -48.5q-22 -57 -29 -77q-16 -47 -16 -73q0 -30 25 -40q5 -2 16 -2q36 0 81 49q-26 35 -26 82q0 43 23 78.5t63 48.5q12 4 24 4
q51 0 51 -60q0 -12 -3 -25q-17 -70 -58 -127q23 -13 48 -13q32 0 70 26v-45z" />
    <glyph glyph-name="w" unicode="w" horiz-adv-x="672" 
d="M674 260q-40 -25 -83 -25q-34 0 -68 19q-82 -80 -169 -80q-69 0 -107 51q-66 -50 -130 -50q-33 0 -64.5 17.5t-45.5 46.5q-13 25 -13 57q0 47 28 121q12 31 27 68l149 24q-1 -5 -9 -28q-16 -41 -46 -124q-16 -48 -16 -73q0 -42 42 -42q20 0 36 13q11 9 22 22q-1 6 -1 18
q0 48 28 120l28 70l148 24q-5 -21 -26 -75q-12 -32 -28.5 -78t-16.5 -72q0 -43 40 -43q37 0 82 50q-26 37 -26 82q0 43 23 78.5t63 48.5q12 4 24 4q51 0 51 -60q0 -12 -3 -25q-17 -70 -58 -127q24 -12 48 -12q35 0 71 25v-45z" />
    <glyph glyph-name="x" unicode="x" horiz-adv-x="556" 
d="M563 263q-122 -88 -198 -88q-9 0 -25 2q-64 8 -96 62q-43 -63 -133 -63q-65 0 -92 60l77 53q28 -57 56 -57q17 0 36 21q14 16 31 70.5t17 79.5q0 40 -28 36q-45 -6 -104 -87q-49 -67 -109 -99v44q27 16 51 50q11 18 35 53q33 46 70 73q43 32 90 32q50 0 80 -27
q13 -13 21 -30q38 56 103 56q52 0 74 -29q10 -13 17 -37l-75 -56q-7 19 -13 38q-11 24 -25 24q-9 0 -20 -11q-22 -22 -36 -62.5t-14 -75.5q0 -30 5 -42q9 -18 35 -18q6 0 13 1q40 5 81 27q19 10 76 45v-45z" />
    <glyph glyph-name="y" unicode="y" horiz-adv-x="521" 
d="M525 261q-43 -26 -101 -51q-31 -13 -78 -32q-67 -147 -169 -170q-18 -4 -40 -4q-85 0 -85 64q0 55 82 96q40 20 83 33l10 35q-82 -58 -142 -58q-56 0 -77 39q-13 23 -13 56q0 40 16 90q19 62 51 120l5 9l153 16l-28 -65q-59 -108 -59 -163q0 -23 17 -23q70 0 135 157
q7 16 31 77l148 20q-18 -51 -58 -167q-22 -64 -36 -101l82 31q42 16 73 36v-45zM198 137q-79 -28 -88 -71q-4 -18 12 -18q31 0 51 34q12 20 25 55z" />
    <glyph glyph-name="z" unicode="z" horiz-adv-x="471" 
d="M476 262q-56 -49 -66 -56q-41 -29 -79 -29q-10 -1 -15 -1q-20 0 -74 13q-41 10 -61 10q-23 0 -41 -11q-2 -1 -11 -10l-13 -5h-68l233 233h-28q-52 0 -84 9q-83 -110 -176 -164v45q64 38 121 125q22 35 56 88q58 -14 114 -14t126 13l17 -32l-193 -194q23 0 67 -8.5
t67 -8.5q42 0 108 42v-45z" />
    <glyph glyph-name="dieresis" unicode="&#xa8;" horiz-adv-x="390" 
d="M327 788l-2 -10q-5 -52 -42 -63q-10 -3 -20 -3q-31 0 -68 31l22 37l16 45q51 -33 84 -36zM185 788l-2 -10q-13 -66 -63 -66q-31 0 -68 31q7 11 15 22l8 18q7 14 16 42q20 -13 29 -18q27 -15 55 -18z" />
    <glyph glyph-name="ordfeminine" unicode="&#xaa;" horiz-adv-x="254" 
d="M465 601q0 -72 -40.5 -125t-109.5 -76q-58 -20 -90 -58q40 0 40 -41q0 -21 -11 -45t-26.5 -35.5t-31.5 -11.5q-35 0 -35 39q-1 7 -1 21q0 101 110 154q-21 -3 -37 22q-12 20 -16 44q-50 -67 -104 -67q-40 0 -61 34q-19 29 -19 71q0 72 55 141q58 73 129 73q39 0 58 -34
l52 31l46 4l-46 -149q-13 -42 -13 -63v-12q0 -12 6 -12q7 0 22 14q7 6 21 20l-1 9q0 52 37 80q15 12 31 12q35 0 35 -40zM402 507q-12 0 -20 4q-40 -50 -74 -72q63 22 94 68zM233 659q0 33 -11 33q-18 0 -42 -35q-17 -26 -26 -51q-14 -36 -14 -68t15 -32q17 0 40 35
q15 25 25 50q13 37 13 68z" />
    <glyph glyph-name="acute" unicode="&#xb4;" horiz-adv-x="349" 
d="M292 831l-3 -14q-8 -38 -61.5 -88t-105.5 -73q-7 -2 -22 5l-15 4q75 81 97 153z" />
    <glyph glyph-name="ordmasculine" unicode="&#xba;" horiz-adv-x="205" 
d="M421 601q0 -72 -41 -124.5t-110 -76.5q-59 -21 -89 -58q17 0 28 -12t11 -29q0 -30 -18 -59q-21 -33 -50 -33q-35 0 -35 39q-1 7 -1 22q0 60 43 105q38 40 99 61q65 22 100 71q-33 -20 -62 -20q-24 0 -45 12q-49 -63 -115 -63q-45 0 -75 35.5t-30 81.5q0 60 41.5 111.5
t99.5 62.5q22 13 55 13q24 0 50 -10q34 -13 34 -58q0 -21 -10 -54q-3 -11 -8 -28q-9 -26 -17 -48q11 -6 21 -6t21 6l-1 7q0 51 38 80q15 12 31 12q35 0 35 -40zM213 531q-29 38 -29 83t29 77q-34 -8 -53 -53q-15 -36 -15 -78q0 -58 27 -58q20 0 41 29z" />
    <glyph glyph-name="Agrave" unicode="&#xc0;" 
d="M753 714l-34 -41q-70 -84 -117 -211q-46 -121 -46 -233q0 -36 7 -49q10 -20 41 -21q29 -1 56 20q9 7 30 27l45 43l5 -77q-112 -122 -213 -122q-6 0 -20 2q-81 11 -97 120q-102 -121 -188 -121q-36 0 -70 21q-83 51 -83 193q0 153 82 286q125 203 374 203q108 0 183 -25z
M574 683q-39 14 -77 14q-134 0 -214 -177q-59 -131 -59 -237q0 -100 53 -114q8 -2 13 -2q31 0 67 35q18 17 50 59q0 212 167 422zM524 778l-26 -12q-112 74 -152 154l-6 12l107 18l1 -10q7 -72 76 -162z" />
    <glyph glyph-name="Aacute" unicode="&#xc1;" 
d="M753 714l-34 -41q-70 -84 -117 -211q-46 -121 -46 -233q0 -36 7 -49q10 -20 41 -21q29 -1 56 20q9 7 30 27l45 43l5 -77q-112 -122 -213 -122q-6 0 -20 2q-81 11 -97 120q-102 -121 -188 -121q-36 0 -70 21q-83 51 -83 193q0 153 82 286q125 203 374 203q108 0 183 -25z
M574 683q-39 14 -77 14q-134 0 -214 -177q-59 -131 -59 -237q0 -100 53 -114q8 -2 13 -2q31 0 67 35q18 17 50 59q0 212 167 422zM718 951l-3 -14q-8 -38 -61.5 -88t-105.5 -73q-7 -2 -22 5l-15 4q75 81 97 153z" />
    <glyph glyph-name="Acircumflex" unicode="&#xc2;" 
d="M753 714l-34 -41q-70 -84 -117 -211q-46 -121 -46 -233q0 -36 7 -49q10 -20 41 -21q29 -1 56 20q9 7 30 27l45 43l5 -77q-112 -122 -213 -122q-6 0 -20 2q-81 11 -97 120q-102 -121 -188 -121q-36 0 -70 21q-83 51 -83 193q0 153 82 286q125 203 374 203q108 0 183 -25z
M574 683q-39 14 -77 14q-134 0 -214 -177q-59 -131 -59 -237q0 -100 53 -114q8 -2 13 -2q31 0 67 35q18 17 50 59q0 212 167 422zM676 789l-5 -20q-93 0 -127 108q-57 -77 -175 -114l6 29q87 54 146 155l109 20v-26q-1 -17 -1 -26q0 -87 47 -126z" />
    <glyph glyph-name="Atilde" unicode="&#xc3;" 
d="M753 714l-34 -41q-70 -84 -117 -211q-46 -121 -46 -233q0 -36 7 -49q10 -20 41 -21q29 -1 56 20q9 7 30 27l45 43l5 -77q-112 -122 -213 -122q-6 0 -20 2q-81 11 -97 120q-102 -121 -188 -121q-36 0 -70 21q-83 51 -83 193q0 153 82 286q125 203 374 203q108 0 183 -25z
M574 683q-39 14 -77 14q-134 0 -214 -177q-59 -131 -59 -237q0 -100 53 -114q8 -2 13 -2q31 0 67 35q18 17 50 59q0 212 167 422zM723 860q-49 -91 -115 -91q-22 0 -43 11q-10 6 -25 14q-23 12 -28 14q-14 6 -27 6q-23 0 -45 -26l-6 -7l-28 17q13 28 17 34q21 36 53 52
q14 7 36 7q17 0 47 -12q67 -27 85 -27q27 0 43 24l6 9z" />
    <glyph glyph-name="Adieresis" unicode="&#xc4;" 
d="M753 714l-34 -41q-70 -84 -117 -211q-46 -121 -46 -233q0 -36 7 -49q10 -20 41 -21q29 -1 56 20q9 7 30 27l45 43l5 -77q-112 -122 -213 -122q-6 0 -20 2q-81 11 -97 120q-102 -121 -188 -121q-36 0 -70 21q-83 51 -83 193q0 153 82 286q125 203 374 203q108 0 183 -25z
M574 683q-39 14 -77 14q-134 0 -214 -177q-59 -131 -59 -237q0 -100 53 -114q8 -2 13 -2q31 0 67 35q18 17 50 59q0 212 167 422zM675 848l-2 -10q-5 -52 -42 -63q-10 -3 -20 -3q-31 0 -68 31l22 37l16 45q51 -33 84 -36zM533 848l-2 -10q-13 -66 -63 -66q-31 0 -68 31
q7 11 15 22l8 18q7 14 16 42q20 -13 29 -18q27 -15 55 -18z" />
    <glyph glyph-name="Aring" unicode="&#xc5;" 
d="M654 856q0 -34 -24 -58t-58 -24t-58 24t-24 58t24 58t58 24t58 -24t24 -58zM615 856q0 19 -12 31.5t-31 12.5q-18 0 -31 -13t-13 -31t13 -30.5t31 -12.5t30.5 12.5t12.5 30.5zM753 714l-34 -41q-70 -84 -117 -211q-46 -121 -46 -233q0 -36 7 -49q10 -20 41 -21
q29 -1 56 20q9 7 30 27l45 43l5 -77q-112 -122 -213 -122q-6 0 -20 2q-81 11 -97 120q-102 -121 -188 -121q-36 0 -70 21q-83 51 -83 193q0 153 82 286q125 203 374 203q108 0 183 -25zM574 683q-39 14 -77 14q-134 0 -214 -177q-59 -131 -59 -237q0 -100 53 -114
q8 -2 13 -2q31 0 67 35q18 17 50 59q0 212 167 422z" />
    <glyph glyph-name="AE" unicode="&#xc6;" horiz-adv-x="845" 
d="M844 175q-70 -63 -126 -91q-70 -36 -148 -36q-73 0 -131 27q-65 32 -95 92q-100 -116 -184 -116q-35 0 -70 21q-83 50 -83 193q0 153 82 286q125 203 373 203q58 0 128 -13q44 15 90 15q128 0 148 -102l-79 -89q0 44 -18 83q-23 49 -62 49q-43 0 -70 -51q-23 -43 -23 -90
v-12q2 -8 2 -11q8 -37 51 -49q25 -7 76 -7l-25 -89q-40 7 -66 7q-92 0 -122 -84q-8 -23 -8 -46q0 -53 33 -94t85 -42q5 0 12 -1h7q94 0 210 121zM512 442q-77 45 -77 122q0 20 6 42q13 48 54 82q-33 9 -61 9q-134 0 -213 -177q-59 -133 -59 -237q0 -100 53 -114q8 -2 13 -2
q40 0 98 69q0 77 59 137q46 47 127 69z" />
    <glyph glyph-name="Ccedilla" unicode="&#xc7;" horiz-adv-x="615" 
d="M604 169l-48 -42q-100 -78 -224 -78l-13 -13q26 -4 44 -21t18 -43q0 -12 -5 -27q-13 -39 -61 -63q-42 -22 -87 -22h-56l5 35q103 0 103 64q0 22 -17 30q-6 3 -37 9l54 54q-104 17 -163 84q-45 50 -55 115q-5 32 -5 64q0 130 73 248t190 169q48 21 100 21q53 0 93 -25
q73 -45 73 -142q0 -116 -94 -180q-43 -29 -88 -29q-35 0 -63 18.5t-28 57.5q0 45 25 68q19 -39 35 -39q44 -4 75 52q26 48 26 95q0 59 -34 67q-16 3 -21 3q-43 0 -85 -47q-54 -61 -87 -138q-34 -82 -34 -159q0 -80 39 -138q57 -84 149 -84q85 0 142 58l61 62v-84z" />
    <glyph glyph-name="Egrave" unicode="&#xc8;" horiz-adv-x="584" 
d="M579 175q-70 -63 -126 -91q-70 -36 -148 -36q-84 0 -145 34q-70 39 -93 114q-7 23 -7 46q0 52 35 101q32 46 81 72q30 16 71 27q-77 44 -77 121q0 21 6 43q18 68 95 111q68 39 144 39q87 0 124 -46q16 -20 23 -56l-78 -89q0 45 -18 84q-23 48 -63 48q-42 0 -69 -51
q-23 -43 -23 -89q0 -15 2 -24q8 -37 51 -49q25 -7 76 -7l-25 -89q-42 7 -67 7q-92 0 -121 -84q-8 -23 -8 -48q0 -54 32 -92q33 -41 86 -42q5 0 12 -1h7q94 0 210 121zM414 784l-26 -12q-112 74 -152 154l-6 12l107 18l1 -10q7 -72 76 -162z" />
    <glyph glyph-name="Eacute" unicode="&#xc9;" horiz-adv-x="584" 
d="M579 175q-70 -63 -126 -91q-70 -36 -148 -36q-84 0 -145 34q-70 39 -93 114q-7 23 -7 46q0 52 35 101q32 46 81 72q30 16 71 27q-77 44 -77 121q0 21 6 43q18 68 95 111q68 39 144 39q87 0 124 -46q16 -20 23 -56l-78 -89q0 45 -18 84q-23 48 -63 48q-42 0 -69 -51
q-23 -43 -23 -89q0 -15 2 -24q8 -37 51 -49q25 -7 76 -7l-25 -89q-42 7 -67 7q-92 0 -121 -84q-8 -23 -8 -48q0 -54 32 -92q33 -41 86 -42q5 0 12 -1h7q94 0 210 121zM602 949l-3 -14q-8 -38 -61.5 -88t-105.5 -73q-7 -2 -22 5l-15 4q75 81 97 153z" />
    <glyph glyph-name="Ecircumflex" unicode="&#xca;" horiz-adv-x="584" 
d="M579 175q-70 -63 -126 -91q-70 -36 -148 -36q-84 0 -145 34q-70 39 -93 114q-7 23 -7 46q0 52 35 101q32 46 81 72q30 16 71 27q-77 44 -77 121q0 21 6 43q18 68 95 111q68 39 144 39q87 0 124 -46q16 -20 23 -56l-78 -89q0 45 -18 84q-23 48 -63 48q-42 0 -69 -51
q-23 -43 -23 -89q0 -15 2 -24q8 -37 51 -49q25 -7 76 -7l-25 -89q-42 7 -67 7q-92 0 -121 -84q-8 -23 -8 -48q0 -54 32 -92q33 -41 86 -42q5 0 12 -1h7q94 0 210 121zM562 769l-5 -20q-93 0 -127 108q-57 -77 -175 -114l6 29q87 54 146 155l109 20v-26q-1 -17 -1 -26
q0 -87 47 -126z" />
    <glyph glyph-name="Edieresis" unicode="&#xcb;" horiz-adv-x="584" 
d="M579 175q-70 -63 -126 -91q-70 -36 -148 -36q-84 0 -145 34q-70 39 -93 114q-7 23 -7 46q0 52 35 101q32 46 81 72q30 16 71 27q-77 44 -77 121q0 21 6 43q18 68 95 111q68 39 144 39q87 0 124 -46q16 -20 23 -56l-78 -89q0 45 -18 84q-23 48 -63 48q-42 0 -69 -51
q-23 -43 -23 -89q0 -15 2 -24q8 -37 51 -49q25 -7 76 -7l-25 -89q-42 7 -67 7q-92 0 -121 -84q-8 -23 -8 -48q0 -54 32 -92q33 -41 86 -42q5 0 12 -1h7q94 0 210 121zM541 844l-2 -10q-5 -52 -42 -63q-10 -3 -20 -3q-31 0 -68 31l22 37l16 45q51 -33 84 -36zM399 844l-2 -10
q-13 -66 -63 -66q-31 0 -68 31q7 11 15 22l8 18q7 14 16 42q20 -13 29 -18q27 -15 55 -18z" />
    <glyph glyph-name="Igrave" unicode="&#xcc;" horiz-adv-x="503" 
d="M606 725l-15 -17q-22 -25 -45 -59q-29 -43 -45 -115q0 -2 -20 -122q-22 -129 -48 -190q-73 -170 -252 -170q-67 0 -109 28q-49 32 -55 95l117 89q0 -9 -1 -28t-1 -29q0 -103 49 -103q90 0 123 179q7 48 24 143q11 55 52 114q17 25 80 98l-13 -3q-9 -2 -22 -2q-18 0 -42 5
q-57 12 -70 12q-42 0 -63 -34q-12 -20 -12 -37q0 -33 60 -70l-70 -73q-67 39 -67 110q0 75 66 142.5t158 64.5q17 -1 51.5 -11.5t50.5 -10.5q28 0 64 25zM224 136q-16 -13 -41 -13q-11 2 -17 9q22 4 44 4h14zM446 780l-26 -12q-112 74 -152 154l-6 12l107 18l1 -10
q7 -72 76 -162z" />
    <glyph glyph-name="Iacute" unicode="&#xcd;" horiz-adv-x="503" 
d="M606 725l-15 -17q-22 -25 -45 -59q-29 -43 -45 -115q0 -2 -20 -122q-22 -129 -48 -190q-73 -170 -252 -170q-67 0 -109 28q-49 32 -55 95l117 89q0 -9 -1 -28t-1 -29q0 -103 49 -103q90 0 123 179q7 48 24 143q11 55 52 114q17 25 80 98l-13 -3q-9 -2 -22 -2q-18 0 -42 5
q-57 12 -70 12q-42 0 -63 -34q-12 -20 -12 -37q0 -33 60 -70l-70 -73q-67 39 -67 110q0 75 66 142.5t158 64.5q17 -1 51.5 -11.5t50.5 -10.5q28 0 64 25zM224 136q-16 -13 -41 -13q-11 2 -17 9q22 4 44 4h14zM630 945l-3 -14q-8 -38 -61.5 -88t-105.5 -73q-7 -2 -22 5l-15 4
q75 81 97 153z" />
    <glyph glyph-name="Icircumflex" unicode="&#xce;" horiz-adv-x="503" 
d="M606 725l-15 -17q-22 -25 -45 -59q-29 -43 -45 -115q0 -2 -20 -122q-22 -129 -48 -190q-73 -170 -252 -170q-67 0 -109 28q-49 32 -55 95l117 89q0 -9 -1 -28t-1 -29q0 -103 49 -103q90 0 123 179q7 48 24 143q11 55 52 114q17 25 80 98l-13 -3q-9 -2 -22 -2q-18 0 -42 5
q-57 12 -70 12q-42 0 -63 -34q-12 -20 -12 -37q0 -33 60 -70l-70 -73q-67 39 -67 110q0 75 66 142.5t158 64.5q17 -1 51.5 -11.5t50.5 -10.5q28 0 64 25zM224 136q-16 -13 -41 -13q-11 2 -17 9q22 4 44 4h14zM568 789l-5 -20q-93 0 -127 108q-57 -77 -175 -114l6 29
q87 54 146 155l109 20v-26q-1 -17 -1 -26q0 -87 47 -126z" />
    <glyph glyph-name="Idieresis" unicode="&#xcf;" horiz-adv-x="503" 
d="M606 725l-15 -17q-22 -25 -45 -59q-29 -43 -45 -115q0 -2 -20 -122q-22 -129 -48 -190q-73 -170 -252 -170q-67 0 -109 28q-49 32 -55 95l117 89q0 -9 -1 -28t-1 -29q0 -103 49 -103q90 0 123 179q7 48 24 143q11 55 52 114q17 25 80 98l-13 -3q-9 -2 -22 -2q-18 0 -42 5
q-57 12 -70 12q-42 0 -63 -34q-12 -20 -12 -37q0 -33 60 -70l-70 -73q-67 39 -67 110q0 75 66 142.5t158 64.5q17 -1 51.5 -11.5t50.5 -10.5q28 0 64 25zM224 136q-16 -13 -41 -13q-11 2 -17 9q22 4 44 4h14zM587 842l-2 -10q-5 -52 -42 -63q-10 -3 -20 -3q-31 0 -68 31
l22 37l16 45q51 -33 84 -36zM445 842l-2 -10q-13 -66 -63 -66q-31 0 -68 31q7 11 15 22l8 18q7 14 16 42q20 -13 29 -18q27 -15 55 -18z" />
    <glyph glyph-name="Ntilde" unicode="&#xd1;" horiz-adv-x="712" 
d="M829 643q-52 0 -78 -24q-21 -20 -38 -74q-13 -43 -31 -132q-43 -215 -121 -352l-112 -13q0 122 -17 202q-31 146 -48 286l-67 -234q-33 -115 -65 -165q-55 -86 -145 -86q-95 0 -106 106l107 95q0 -116 47 -124q40 -7 83 102q19 48 44 140q11 42 32 125q33 128 75 247
l124 16q0 -73 11 -164q9 -77 26 -163l18 -95q10 -61 14 -96q12 30 23 73q3 13 27 127q31 149 46 191q44 123 113 123q35 0 49 -17q9 -12 9 -30q0 -26 -20 -64zM809 850q-49 -91 -115 -91q-22 0 -43 11q-10 6 -25 14q-23 12 -28 14q-14 6 -27 6q-23 0 -45 -26l-6 -7l-28 17
q13 28 17 34q21 36 53 52q14 7 36 7q17 0 47 -12q67 -27 85 -27q27 0 43 24l6 9z" />
    <glyph glyph-name="Ograve" unicode="&#xd2;" horiz-adv-x="664" 
d="M627 603q0 37 -3 52q-7 35 -29 38q-41 6 -78 -58q-33 -57 -33 -101q0 -25 18 -32q10 -4 40 -4q-31 -88 -82 -88q-12 0 -19 2q-63 18 -63 94q0 78 58 160q62 89 137 89q69 0 97 -64q14 -34 14 -79q0 -77 -40 -184q-69 -185 -187 -292q-97 -88 -185 -88q-51 0 -94 29
t-62.5 77t-19.5 111q0 88 34 180q68 182 206 292l155 31q-59 -59 -86 -89q-47 -52 -75 -99q-80 -134 -80 -293q0 -131 84 -131q71 0 144 88q149 179 149 359zM534 792l-26 -12q-112 74 -152 154l-6 12l107 18l1 -10q7 -72 76 -162z" />
    <glyph glyph-name="Oacute" unicode="&#xd3;" horiz-adv-x="664" 
d="M627 603q0 37 -3 52q-7 35 -29 38q-41 6 -78 -58q-33 -57 -33 -101q0 -25 18 -32q10 -4 40 -4q-31 -88 -82 -88q-12 0 -19 2q-63 18 -63 94q0 78 58 160q62 89 137 89q69 0 97 -64q14 -34 14 -79q0 -77 -40 -184q-69 -185 -187 -292q-97 -88 -185 -88q-51 0 -94 29
t-62.5 77t-19.5 111q0 88 34 180q68 182 206 292l155 31q-59 -59 -86 -89q-47 -52 -75 -99q-80 -134 -80 -293q0 -131 84 -131q71 0 144 88q149 179 149 359zM710 949l-3 -14q-8 -38 -61.5 -88t-105.5 -73q-7 -2 -22 5l-15 4q75 81 97 153z" />
    <glyph glyph-name="Ocircumflex" unicode="&#xd4;" horiz-adv-x="664" 
d="M627 603q0 37 -3 52q-7 35 -29 38q-41 6 -78 -58q-33 -57 -33 -101q0 -25 18 -32q10 -4 40 -4q-31 -88 -82 -88q-12 0 -19 2q-63 18 -63 94q0 78 58 160q62 89 137 89q69 0 97 -64q14 -34 14 -79q0 -77 -40 -184q-69 -185 -187 -292q-97 -88 -185 -88q-51 0 -94 29
t-62.5 77t-19.5 111q0 88 34 180q68 182 206 292l155 31q-59 -59 -86 -89q-47 -52 -75 -99q-80 -134 -80 -293q0 -131 84 -131q71 0 144 88q149 179 149 359zM662 785l-5 -20q-93 0 -127 108q-57 -77 -175 -114l6 29q87 54 146 155l109 20v-26q-1 -17 -1 -26q0 -87 47 -126z
" />
    <glyph glyph-name="Otilde" unicode="&#xd5;" horiz-adv-x="664" 
d="M627 603q0 37 -3 52q-7 35 -29 38q-41 6 -78 -58q-33 -57 -33 -101q0 -25 18 -32q10 -4 40 -4q-31 -88 -82 -88q-12 0 -19 2q-63 18 -63 94q0 78 58 160q62 89 137 89q69 0 97 -64q14 -34 14 -79q0 -77 -40 -184q-69 -185 -187 -292q-97 -88 -185 -88q-51 0 -94 29
t-62.5 77t-19.5 111q0 88 34 180q68 182 206 292l155 31q-59 -59 -86 -89q-47 -52 -75 -99q-80 -134 -80 -293q0 -131 84 -131q71 0 144 88q149 179 149 359zM715 866q-49 -91 -115 -91q-22 0 -43 11q-10 6 -25 14q-23 12 -28 14q-14 6 -27 6q-23 0 -45 -26l-6 -7l-28 17
q13 28 17 34q21 36 53 52q14 7 36 7q17 0 47 -12q67 -27 85 -27q27 0 43 24l6 9z" />
    <glyph glyph-name="Odieresis" unicode="&#xd6;" horiz-adv-x="664" 
d="M627 603q0 37 -3 52q-7 35 -29 38q-41 6 -78 -58q-33 -57 -33 -101q0 -25 18 -32q10 -4 40 -4q-31 -88 -82 -88q-12 0 -19 2q-63 18 -63 94q0 78 58 160q62 89 137 89q69 0 97 -64q14 -34 14 -79q0 -77 -40 -184q-69 -185 -187 -292q-97 -88 -185 -88q-51 0 -94 29
t-62.5 77t-19.5 111q0 88 34 180q68 182 206 292l155 31q-59 -59 -86 -89q-47 -52 -75 -99q-80 -134 -80 -293q0 -131 84 -131q71 0 144 88q149 179 149 359zM685 858l-2 -10q-5 -52 -42 -63q-10 -3 -20 -3q-31 0 -68 31l22 37l16 45q51 -33 84 -36zM543 858l-2 -10
q-13 -66 -63 -66q-31 0 -68 31q7 11 15 22l8 18q7 14 16 42q20 -13 29 -18q27 -15 55 -18z" />
    <glyph glyph-name="Oslash" unicode="&#xd8;" horiz-adv-x="704" 
d="M738 778l-47 -70q24 -37 24 -94q0 -75 -41 -185q-71 -190 -186 -293q-98 -88 -186 -88q-29 0 -55 10l-46 -68l-32 21l43 64q-85 57 -85 191q0 87 34 179q67 181 206 292l155 31q-59 -59 -86 -89q-47 -52 -75 -99q-80 -134 -80 -293q0 -47 18 -85l150 220q-40 24 -40 84
q0 78 58 160q62 89 137 89q31 0 50 -13l9 -6l43 63zM633 691l-7 2q-40 5 -78 -58q-33 -57 -33 -101q0 -9 1 -13zM658 603v34l-3 19l-107 -157l25 -1q-29 -88 -86 -88l-163 -240q18 -14 44 -14q68 0 141 88q149 179 149 359z" />
    <glyph glyph-name="Ugrave" unicode="&#xd9;" horiz-adv-x="748" 
d="M757 198q-2 -3 -11 -17q-29 -45 -94 -89q-57 -39 -104 -39q-53 0 -85 41q-26 35 -32 91q-48 -84 -109 -115q-35 -18 -70 -18q-96 0 -116 106q-5 26 -5 50q0 63 28 150q19 61 28 85q13 34 31.5 87t18.5 88q1 10 1 14q0 27 -11 44q-14 22 -39 18q-32 -5 -59.5 -37.5
t-33.5 -66.5q-2 -10 -2 -22q0 -39 29 -71q4 -4 26 -19l-80 -79q-22 21 -44 43q-24 36 -24 84q0 83 66.5 156t148.5 73q11 0 20 -1q54 -6 93 -52t39 -131q0 -68 -28 -163q-14 -48 -49 -142q-17 -46 -17 -81q0 -42 29 -42q47 0 91 88q24 48 49 131q11 38 39 142q40 152 72 235
l147 17q-62 -213 -93 -347q-19 -81 -34 -170q-3 -18 -3 -40q0 -49 25 -54q35 -7 76 36q15 17 37 40zM482 736l-26 -12q-112 74 -152 154l-6 12l107 18l1 -10q7 -72 76 -162z" />
    <glyph glyph-name="Uacute" unicode="&#xda;" horiz-adv-x="748" 
d="M757 198q-2 -3 -11 -17q-29 -45 -94 -89q-57 -39 -104 -39q-53 0 -85 41q-26 35 -32 91q-48 -84 -109 -115q-35 -18 -70 -18q-96 0 -116 106q-5 26 -5 50q0 63 28 150q19 61 28 85q13 34 31.5 87t18.5 88q1 10 1 14q0 27 -11 44q-14 22 -39 18q-32 -5 -59.5 -37.5
t-33.5 -66.5q-2 -10 -2 -22q0 -39 29 -71q4 -4 26 -19l-80 -79q-22 21 -44 43q-24 36 -24 84q0 83 66.5 156t148.5 73q11 0 20 -1q54 -6 93 -52t39 -131q0 -68 -28 -163q-14 -48 -49 -142q-17 -46 -17 -81q0 -42 29 -42q47 0 91 88q24 48 49 131q11 38 39 142q40 152 72 235
l147 17q-62 -213 -93 -347q-19 -81 -34 -170q-3 -18 -3 -40q0 -49 25 -54q35 -7 76 36q15 17 37 40zM626 917l-3 -14q-8 -38 -61.5 -88t-105.5 -73q-7 -2 -22 5l-15 4q75 81 97 153z" />
    <glyph glyph-name="Ucircumflex" unicode="&#xdb;" horiz-adv-x="748" 
d="M757 198q-2 -3 -11 -17q-29 -45 -94 -89q-57 -39 -104 -39q-53 0 -85 41q-26 35 -32 91q-48 -84 -109 -115q-35 -18 -70 -18q-96 0 -116 106q-5 26 -5 50q0 63 28 150q19 61 28 85q13 34 31.5 87t18.5 88q1 10 1 14q0 27 -11 44q-14 22 -39 18q-32 -5 -59.5 -37.5
t-33.5 -66.5q-2 -10 -2 -22q0 -39 29 -71q4 -4 26 -19l-80 -79q-22 21 -44 43q-24 36 -24 84q0 83 66.5 156t148.5 73q11 0 20 -1q54 -6 93 -52t39 -131q0 -68 -28 -163q-14 -48 -49 -142q-17 -46 -17 -81q0 -42 29 -42q47 0 91 88q24 48 49 131q11 38 39 142q40 152 72 235
l147 17q-62 -213 -93 -347q-19 -81 -34 -170q-3 -18 -3 -40q0 -49 25 -54q35 -7 76 36q15 17 37 40zM580 779l-5 -20q-93 0 -127 108q-57 -77 -175 -114l6 29q87 54 146 155l109 20v-26q-1 -17 -1 -26q0 -87 47 -126z" />
    <glyph glyph-name="Udieresis" unicode="&#xdc;" horiz-adv-x="748" 
d="M757 198q-2 -3 -11 -17q-29 -45 -94 -89q-57 -39 -104 -39q-53 0 -85 41q-26 35 -32 91q-48 -84 -109 -115q-35 -18 -70 -18q-96 0 -116 106q-5 26 -5 50q0 63 28 150q19 61 28 85q13 34 31.5 87t18.5 88q1 10 1 14q0 27 -11 44q-14 22 -39 18q-32 -5 -59.5 -37.5
t-33.5 -66.5q-2 -10 -2 -22q0 -39 29 -71q4 -4 26 -19l-80 -79q-22 21 -44 43q-24 36 -24 84q0 83 66.5 156t148.5 73q11 0 20 -1q54 -6 93 -52t39 -131q0 -68 -28 -163q-14 -48 -49 -142q-17 -46 -17 -81q0 -42 29 -42q47 0 91 88q24 48 49 131q11 38 39 142q40 152 72 235
l147 17q-62 -213 -93 -347q-19 -81 -34 -170q-3 -18 -3 -40q0 -49 25 -54q35 -7 76 36q15 17 37 40zM559 808l-2 -10q-5 -52 -42 -63q-10 -3 -20 -3q-31 0 -68 31l22 37l16 45q51 -33 84 -36zM417 808l-2 -10q-13 -66 -63 -66q-31 0 -68 31q7 11 15 22l8 18q7 14 16 42
q20 -13 29 -18q27 -15 55 -18z" />
    <glyph glyph-name="germandbls" unicode="&#xdf;" horiz-adv-x="528" 
d="M536 262q-55 -49 -116 -68q-55 -18 -134 -18q-77 0 -114 37q-9 -62 -22 -189l-132 -22q0 70 10 148q6 44 23 147l-62 -51v49q24 17 43 38q4 4 33 41q35 167 88 278l132 44q39 13 76 13q50 0 84 -27.5t34 -65.5q0 -62 -69 -104l-39 -24q51 -12 85 -42q40 -35 40 -83
q0 -46 -39 -95q29 7 79 39v-45zM368 611q-3 15 -18.5 24.5t-31.5 9.5q-29 0 -51 -23q-18 -19 -25 -50l-25 -108q152 81 152 137q0 7 -1 10zM367 327q-4 32 -13 47q-27 45 -107 45l-44 -24l-24 -139l78 59l3 -34q5 -53 32 -53q7 0 10 1q29 4 49 36t16 62z" />
    <glyph glyph-name="agrave" unicode="&#xe0;" horiz-adv-x="502" 
d="M514 262l-98 -70q-35 -19 -66 -19q-53 0 -75 43q-11 19 -14 44q-69 -85 -154 -85q-24 0 -45 8q-74 28 -74 111t83 149q77 62 162 62q54 0 83 -39l82 35q9 4 34 4h20l-54 -153q-13 -37 -13 -64q0 -35 27 -35q22 0 58 22q4 3 44 31v-44zM272 411q0 45 -30 45q-43 0 -81 -55
q-34 -51 -34 -97q0 -42 34 -42q56 0 95 83q16 35 16 66zM246 542l-26 -12q-112 74 -152 154l-6 12l107 18l1 -10q7 -72 76 -162z" />
    <glyph glyph-name="aacute" unicode="&#xe1;" horiz-adv-x="502" 
d="M514 262l-98 -70q-35 -19 -66 -19q-53 0 -75 43q-11 19 -14 44q-69 -85 -154 -85q-24 0 -45 8q-74 28 -74 111t83 149q77 62 162 62q54 0 83 -39l82 35q9 4 34 4h20l-54 -153q-13 -37 -13 -64q0 -35 27 -35q22 0 58 22q4 3 44 31v-44zM272 411q0 45 -30 45q-43 0 -81 -55
q-34 -51 -34 -97q0 -42 34 -42q56 0 95 83q16 35 16 66zM436 703l-3 -14q-8 -38 -61.5 -88t-105.5 -73q-7 -2 -22 5l-15 4q75 81 97 153z" />
    <glyph glyph-name="acircumflex" unicode="&#xe2;" horiz-adv-x="502" 
d="M514 262l-98 -70q-35 -19 -66 -19q-53 0 -75 43q-11 19 -14 44q-69 -85 -154 -85q-24 0 -45 8q-74 28 -74 111t83 149q77 62 162 62q54 0 83 -39l82 35q9 4 34 4h20l-54 -153q-13 -37 -13 -64q0 -35 27 -35q22 0 58 22q4 3 44 31v-44zM272 411q0 45 -30 45q-43 0 -81 -55
q-34 -51 -34 -97q0 -42 34 -42q56 0 95 83q16 35 16 66zM392 525l-5 -20q-93 0 -127 108q-57 -77 -175 -114l6 29q87 54 146 155l109 20v-26q-1 -17 -1 -26q0 -87 47 -126z" />
    <glyph glyph-name="atilde" unicode="&#xe3;" horiz-adv-x="502" 
d="M514 262l-98 -70q-35 -19 -66 -19q-53 0 -75 43q-11 19 -14 44q-69 -85 -154 -85q-24 0 -45 8q-74 28 -74 111t83 149q77 62 162 62q54 0 83 -39l82 35q9 4 34 4h20l-54 -153q-13 -37 -13 -64q0 -35 27 -35q22 0 58 22q4 3 44 31v-44zM272 411q0 45 -30 45q-43 0 -81 -55
q-34 -51 -34 -97q0 -42 34 -42q56 0 95 83q16 35 16 66zM455 608q-49 -91 -115 -91q-22 0 -43 11q-10 6 -25 14q-23 12 -28 14q-14 6 -27 6q-23 0 -45 -26l-6 -7l-28 17q13 28 17 34q21 36 53 52q14 7 36 7q17 0 47 -12q67 -27 85 -27q27 0 43 24l6 9z" />
    <glyph glyph-name="adieresis" unicode="&#xe4;" horiz-adv-x="502" 
d="M514 262l-98 -70q-35 -19 -66 -19q-53 0 -75 43q-11 19 -14 44q-69 -85 -154 -85q-24 0 -45 8q-74 28 -74 111t83 149q77 62 162 62q54 0 83 -39l82 35q9 4 34 4h20l-54 -153q-13 -37 -13 -64q0 -35 27 -35q22 0 58 22q4 3 44 31v-44zM272 411q0 45 -30 45q-43 0 -81 -55
q-34 -51 -34 -97q0 -42 34 -42q56 0 95 83q16 35 16 66zM371 596l-2 -10q-5 -52 -42 -63q-10 -3 -20 -3q-31 0 -68 31l22 37l16 45q51 -33 84 -36zM229 596l-2 -10q-13 -66 -63 -66q-31 0 -68 31q7 11 15 22l8 18q7 14 16 42q20 -13 29 -18q27 -15 55 -18z" />
    <glyph glyph-name="aring" unicode="&#xe5;" horiz-adv-x="502" 
d="M342 609q0 -34 -24 -58t-58 -24t-58 24t-24 58t24 58t58 24t58 -24t24 -58zM303 609q0 19 -12 31.5t-31 12.5q-18 0 -31 -13t-13 -31t13 -30.5t31 -12.5t30.5 12.5t12.5 30.5zM514 262l-98 -70q-35 -19 -66 -19q-53 0 -75 43q-11 19 -14 44q-69 -85 -154 -85q-24 0 -45 8
q-74 28 -74 111t83 149q77 62 162 62q54 0 83 -39l82 35q9 4 34 4h20l-54 -153q-13 -37 -13 -64q0 -35 27 -35q22 0 58 22q4 3 44 31v-44zM272 411q0 45 -30 45q-43 0 -81 -55q-34 -51 -34 -97q0 -42 34 -42q56 0 95 83q16 35 16 66z" />
    <glyph glyph-name="ae" unicode="&#xe6;" horiz-adv-x="632" 
d="M642 264q-50 -39 -59 -45q-13 -9 -40 -21q-53 -23 -108 -23q-72 0 -119 35q-31 23 -43 58q-72 -91 -157 -91q-25 0 -44 8q-73 30 -73 112q0 94 104 163q71 47 137 47q57 0 84 -42q46 27 71 40q6 3 17 3t32 -3l-2 -5q23 6 47 6q80 0 105 -56q6 -13 6 -25q0 -43 -75 -80
q-44 -22 -121 -41q17 -51 79 -51q7 0 15 1q79 10 144 55v-45zM490 419q1 4 1 12q0 26 -22 26q-3 0 -11 -2q-30 -7 -48 -40q-16 -29 -16 -63q42 10 61 21q31 18 35 46zM273 412q0 44 -29 44q-33 0 -65 -37q-26 -31 -39 -68q-9 -25 -9 -47q0 -42 33 -42q43 0 77 55
q32 50 32 95z" />
    <glyph glyph-name="ccedilla" unicode="&#xe7;" horiz-adv-x="414" 
d="M395 266l-76 -52q-39 -25 -77 -34l-23 -24q63 -11 63 -65q0 -12 -5 -26q-14 -39 -61 -63q-42 -22 -87 -22h-56l4 35q103 0 103 63q0 22 -17 30q-5 3 -36 10l53 54l-33 2q-58 4 -93 43t-35 91q0 55 37 102q33 43 86 69q50 24 103 24q45 0 75 -19q34 -23 34 -66v-15
l-123 -35q11 39 11 55q0 30 -24 30q-45 0 -67 -61q-9 -24 -9 -48q0 -46 31 -70q23 -19 73 -19q57 0 149 55v-44z" />
    <glyph glyph-name="egrave" unicode="&#xe8;" horiz-adv-x="357" 
d="M365 263q-4 -3 -48 -34q-31 -22 -51 -31q-50 -22 -110 -22q-81 0 -128 43q-38 35 -38 86q0 45 28 92q25 41 70.5 70.5t94.5 36.5q14 2 28 2q71 0 102 -47q10 -15 10 -32q0 -45 -73 -81q-32 -16 -61 -25q-20 -6 -62 -17q29 -60 88 -60q41 0 82 21q2 1 68 43v-45zM213 419
q1 4 1 12q0 26 -22 26q-3 0 -11 -2q-30 -7 -48 -40q-16 -29 -16 -63q41 11 61 22q31 17 35 45zM216 536l-26 -12q-112 74 -152 154l-6 12l107 18l1 -10q7 -72 76 -162z" />
    <glyph glyph-name="eacute" unicode="&#xe9;" horiz-adv-x="357" 
d="M365 263q-4 -3 -48 -34q-31 -22 -51 -31q-50 -22 -110 -22q-81 0 -128 43q-38 35 -38 86q0 45 28 92q25 41 70.5 70.5t94.5 36.5q14 2 28 2q71 0 102 -47q10 -15 10 -32q0 -45 -73 -81q-32 -16 -61 -25q-20 -6 -62 -17q29 -60 88 -60q41 0 82 21q2 1 68 43v-45zM213 419
q1 4 1 12q0 26 -22 26q-3 0 -11 -2q-30 -7 -48 -40q-16 -29 -16 -63q41 11 61 22q31 17 35 45zM392 709l-3 -14q-8 -38 -61.5 -88t-105.5 -73q-7 -2 -22 5l-15 4q75 81 97 153z" />
    <glyph glyph-name="ecircumflex" unicode="&#xea;" horiz-adv-x="357" 
d="M365 263q-4 -3 -48 -34q-31 -22 -51 -31q-50 -22 -110 -22q-81 0 -128 43q-38 35 -38 86q0 45 28 92q25 41 70.5 70.5t94.5 36.5q14 2 28 2q71 0 102 -47q10 -15 10 -32q0 -45 -73 -81q-32 -16 -61 -25q-20 -6 -62 -17q29 -60 88 -60q41 0 82 21q2 1 68 43v-45zM213 419
q1 4 1 12q0 26 -22 26q-3 0 -11 -2q-30 -7 -48 -40q-16 -29 -16 -63q41 11 61 22q31 17 35 45zM362 509l-5 -20q-93 0 -127 108q-57 -77 -175 -114l6 29q87 54 146 155l109 20v-26q-1 -17 -1 -26q0 -87 47 -126z" />
    <glyph glyph-name="edieresis" unicode="&#xeb;" horiz-adv-x="357" 
d="M365 263q-4 -3 -48 -34q-31 -22 -51 -31q-50 -22 -110 -22q-81 0 -128 43q-38 35 -38 86q0 45 28 92q25 41 70.5 70.5t94.5 36.5q14 2 28 2q71 0 102 -47q10 -15 10 -32q0 -45 -73 -81q-32 -16 -61 -25q-20 -6 -62 -17q29 -60 88 -60q41 0 82 21q2 1 68 43v-45zM213 419
q1 4 1 12q0 26 -22 26q-3 0 -11 -2q-30 -7 -48 -40q-16 -29 -16 -63q41 11 61 22q31 17 35 45zM339 602l-2 -10q-5 -52 -42 -63q-10 -3 -20 -3q-31 0 -68 31l22 37l16 45q51 -33 84 -36zM197 602l-2 -10q-13 -66 -63 -66q-31 0 -68 31q7 11 15 22l8 18q7 14 16 42
q20 -13 29 -18q27 -15 55 -18z" />
    <glyph glyph-name="igrave" unicode="&#xec;" horiz-adv-x="230" 
d="M240 262q-5 -3 -57 -41q-63 -46 -104 -46q-55 0 -78 45q-13 25 -13 60q0 45 26 124q11 33 30 79l148 23l-26 -71q-11 -27 -29 -82q-13 -43 -13 -63q0 -24 25 -24q28 0 91 41v-45zM148 530l-26 -12q-112 74 -152 154l-6 12l107 18l1 -10q7 -72 76 -162z" />
    <glyph glyph-name="iacute" unicode="&#xed;" horiz-adv-x="230" 
d="M240 262q-5 -3 -57 -41q-63 -46 -104 -46q-55 0 -78 45q-13 25 -13 60q0 45 26 124q11 33 30 79l148 23l-26 -71q-11 -27 -29 -82q-13 -43 -13 -63q0 -24 25 -24q28 0 91 41v-45zM304 703l-3 -14q-8 -38 -61.5 -88t-105.5 -73q-7 -2 -22 5l-15 4q75 81 97 153z" />
    <glyph glyph-name="icircumflex" unicode="&#xee;" horiz-adv-x="230" 
d="M240 262q-5 -3 -57 -41q-63 -46 -104 -46q-55 0 -78 45q-13 25 -13 60q0 45 26 124q11 33 30 79l148 23l-26 -71q-11 -27 -29 -82q-13 -43 -13 -63q0 -24 25 -24q28 0 91 41v-45zM286 521l-5 -20q-93 0 -127 108q-57 -77 -175 -114l6 29q87 54 146 155l109 20v-26
q-1 -17 -1 -26q0 -87 47 -126z" />
    <glyph glyph-name="idieresis" unicode="&#xef;" horiz-adv-x="230" 
d="M240 262q-5 -3 -57 -41q-63 -46 -104 -46q-55 0 -78 45q-13 25 -13 60q0 45 26 124q11 33 30 79l148 23l-26 -71q-11 -27 -29 -82q-13 -43 -13 -63q0 -24 25 -24q28 0 91 41v-45zM277 604l-2 -10q-5 -52 -42 -63q-10 -3 -20 -3q-31 0 -68 31l22 37l16 45q51 -33 84 -36z
M135 604l-2 -10q-13 -66 -63 -66q-31 0 -68 31q7 11 15 22l8 18q7 14 16 42q20 -13 29 -18q27 -15 55 -18z" />
    <glyph glyph-name="ntilde" unicode="&#xf1;" horiz-adv-x="422" 
d="M471 263q-67 -49 -83 -58q-52 -31 -95 -31q-56 0 -81 40q-12 17 -12 39q0 30 21 79l32 75q-1 4 -1 9q-15 -6 -19 -9q-47 -30 -104 -89q-6 -36 -6 -71q0 -27 3 -54l-121 -19q-14 56 -14 107q0 64 28 135q12 29 31 70l139 23q-1 -2 -19 -48q-12 -31 -18 -49q99 91 172 91
q48 0 65 -29q8 -15 8 -36q0 -31 -17 -74l-39 -100q0 -10 15 -10q25 0 76 30q10 6 39 24v-45zM415 614q-49 -91 -115 -91q-22 0 -43 11q-10 6 -25 14q-23 12 -28 14q-14 6 -27 6q-23 0 -45 -26l-6 -7l-28 17q13 28 17 34q21 36 53 52q14 7 36 7q17 0 47 -12q67 -27 85 -27
q27 0 43 24l6 9z" />
    <glyph glyph-name="ograve" unicode="&#xf2;" horiz-adv-x="425" 
d="M433 262q-47 -30 -90 -30q-32 0 -63 16q-61 -72 -152 -72q-68 0 -109 49q-32 38 -32 84q0 77 67 135q47 41 112 52q36 13 76 13q71 0 93 -36q11 -20 11 -47q0 -56 -39 -134q23 -15 49 -15q32 0 77 30v-45zM236 279q-44 46 -44 98q0 49 40 85q-46 0 -76 -42
q-27 -36 -29 -85q-2 -32 8 -58q12 -32 39 -32q20 0 39 14q12 9 23 20zM202 534l-26 -12q-112 74 -152 154l-6 12l107 18l1 -10q7 -72 76 -162z" />
    <glyph glyph-name="oacute" unicode="&#xf3;" horiz-adv-x="425" 
d="M433 262q-47 -30 -90 -30q-32 0 -63 16q-61 -72 -152 -72q-68 0 -109 49q-32 38 -32 84q0 77 67 135q47 41 112 52q36 13 76 13q71 0 93 -36q11 -20 11 -47q0 -56 -39 -134q23 -15 49 -15q32 0 77 30v-45zM236 279q-44 46 -44 98q0 49 40 85q-46 0 -76 -42
q-27 -36 -29 -85q-2 -32 8 -58q12 -32 39 -32q20 0 39 14q12 9 23 20zM382 707l-3 -14q-8 -38 -61.5 -88t-105.5 -73q-7 -2 -22 5l-15 4q75 81 97 153z" />
    <glyph glyph-name="ocircumflex" unicode="&#xf4;" horiz-adv-x="425" 
d="M433 262q-47 -30 -90 -30q-32 0 -63 16q-61 -72 -152 -72q-68 0 -109 49q-32 38 -32 84q0 77 67 135q47 41 112 52q36 13 76 13q71 0 93 -36q11 -20 11 -47q0 -56 -39 -134q23 -15 49 -15q32 0 77 30v-45zM236 279q-44 46 -44 98q0 49 40 85q-46 0 -76 -42
q-27 -36 -29 -85q-2 -32 8 -58q12 -32 39 -32q20 0 39 14q12 9 23 20zM356 529l-5 -20q-93 0 -127 108q-57 -77 -175 -114l6 29q87 54 146 155l109 20v-26q-1 -17 -1 -26q0 -87 47 -126z" />
    <glyph glyph-name="otilde" unicode="&#xf5;" horiz-adv-x="425" 
d="M433 262q-47 -30 -90 -30q-32 0 -63 16q-61 -72 -152 -72q-68 0 -109 49q-32 38 -32 84q0 77 67 135q47 41 112 52q36 13 76 13q71 0 93 -36q11 -20 11 -47q0 -56 -39 -134q23 -15 49 -15q32 0 77 30v-45zM236 279q-44 46 -44 98q0 49 40 85q-46 0 -76 -42
q-27 -36 -29 -85q-2 -32 8 -58q12 -32 39 -32q20 0 39 14q12 9 23 20zM395 618q-49 -91 -115 -91q-22 0 -43 11q-10 6 -25 14q-23 12 -28 14q-14 6 -27 6q-23 0 -45 -26l-6 -7l-28 17q13 28 17 34q21 36 53 52q14 7 36 7q17 0 47 -12q67 -27 85 -27q27 0 43 24l6 9z" />
    <glyph glyph-name="odieresis" unicode="&#xf6;" horiz-adv-x="425" 
d="M433 262q-47 -30 -90 -30q-32 0 -63 16q-61 -72 -152 -72q-68 0 -109 49q-32 38 -32 84q0 77 67 135q47 41 112 52q36 13 76 13q71 0 93 -36q11 -20 11 -47q0 -56 -39 -134q23 -15 49 -15q32 0 77 30v-45zM236 279q-44 46 -44 98q0 49 40 85q-46 0 -76 -42
q-27 -36 -29 -85q-2 -32 8 -58q12 -32 39 -32q20 0 39 14q12 9 23 20zM355 604l-2 -10q-5 -52 -42 -63q-10 -3 -20 -3q-31 0 -68 31l22 37l16 45q51 -33 84 -36zM213 604l-2 -10q-13 -66 -63 -66q-31 0 -68 31q7 11 15 22l8 18q7 14 16 42q20 -13 29 -18q27 -15 55 -18z" />
    <glyph glyph-name="oslash" unicode="&#xf8;" horiz-adv-x="432" 
d="M445 265q-48 -34 -96 -34q-31 0 -63 16q-60 -71 -150 -71q-30 0 -56 10l-35 -38l-28 26l28 31q-11 9 -20 20q-32 37 -32 84q0 75 67 135q44 40 110 51q63 10 95 10q27 0 40 -5l10 -4l25 27l29 -26l-24 -26q9 -15 9 -38q0 -36 -24 -103q-5 -14 -16 -39q27 -14 51 -14
q34 0 77 31zM238 461q-47 0 -77 -41q-27 -37 -27 -86q-1 -10 -1 -16q0 -5 2 -17l63 69q0 53 40 91zM242 279q-20 20 -33 46l-60 -65q11 -16 31 -16q35 0 62 35z" />
    <glyph glyph-name="ugrave" unicode="&#xf9;" horiz-adv-x="493" 
d="M503 264q-74 -60 -133 -80q-19 -7 -34 -7q-90 0 -107 67q-86 -69 -154 -69q-96 0 -96 106q0 41 13 90q9 30 40 113l147 25l-21 -60q-11 -31 -28 -82t-17 -82q0 -32 21 -32q25 0 54 25q15 13 42 46q7 40 30 101l23 61l149 22l-50 -148q-11 -31 -16 -59q-2 -11 -2 -16
q0 -24 22 -24q8 0 15 2q56 16 102 46v-45zM250 532l-26 -12q-112 74 -152 154l-6 12l107 18l1 -10q7 -72 76 -162z" />
    <glyph glyph-name="uacute" unicode="&#xfa;" horiz-adv-x="493" 
d="M503 264q-74 -60 -133 -80q-19 -7 -34 -7q-90 0 -107 67q-86 -69 -154 -69q-96 0 -96 106q0 41 13 90q9 30 40 113l147 25l-21 -60q-11 -31 -28 -82t-17 -82q0 -32 21 -32q25 0 54 25q15 13 42 46q7 40 30 101l23 61l149 22l-50 -148q-11 -31 -16 -59q-2 -11 -2 -16
q0 -24 22 -24q8 0 15 2q56 16 102 46v-45zM410 679l-3 -14q-8 -38 -61.5 -88t-105.5 -73q-7 -2 -22 5l-15 4q75 81 97 153z" />
    <glyph glyph-name="ucircumflex" unicode="&#xfb;" horiz-adv-x="493" 
d="M503 264q-74 -60 -133 -80q-19 -7 -34 -7q-90 0 -107 67q-86 -69 -154 -69q-96 0 -96 106q0 41 13 90q9 30 40 113l147 25l-21 -60q-11 -31 -28 -82t-17 -82q0 -32 21 -32q25 0 54 25q15 13 42 46q7 40 30 101l23 61l149 22l-50 -148q-11 -31 -16 -59q-2 -11 -2 -16
q0 -24 22 -24q8 0 15 2q56 16 102 46v-45zM388 543l-5 -20q-93 0 -127 108q-57 -77 -175 -114l6 29q87 54 146 155l109 20v-26q-1 -17 -1 -26q0 -87 47 -126z" />
    <glyph glyph-name="udieresis" unicode="&#xfc;" horiz-adv-x="493" 
d="M503 264q-74 -60 -133 -80q-19 -7 -34 -7q-90 0 -107 67q-86 -69 -154 -69q-96 0 -96 106q0 41 13 90q9 30 40 113l147 25l-21 -60q-11 -31 -28 -82t-17 -82q0 -32 21 -32q25 0 54 25q15 13 42 46q7 40 30 101l23 61l149 22l-50 -148q-11 -31 -16 -59q-2 -11 -2 -16
q0 -24 22 -24q8 0 15 2q56 16 102 46v-45zM371 610l-2 -10q-5 -52 -42 -63q-10 -3 -20 -3q-31 0 -68 31l22 37l16 45q51 -33 84 -36zM229 610l-2 -10q-13 -66 -63 -66q-31 0 -68 31q7 11 15 22l8 18q7 14 16 42q20 -13 29 -18q27 -15 55 -18z" />
    <glyph glyph-name="ydieresis" unicode="&#xff;" horiz-adv-x="521" 
d="M525 261q-43 -26 -101 -51q-31 -13 -78 -32q-67 -147 -169 -170q-18 -4 -40 -4q-85 0 -85 64q0 55 82 96q40 20 83 33l10 35q-82 -58 -142 -58q-56 0 -77 39q-13 23 -13 56q0 40 16 90q19 62 51 120l5 9l153 16l-28 -65q-59 -108 -59 -163q0 -23 17 -23q70 0 135 157
q7 16 31 77l148 20q-18 -51 -58 -167q-22 -64 -36 -101l82 31q42 16 73 36v-45zM198 137q-79 -28 -88 -71q-4 -18 12 -18q31 0 51 34q12 20 25 55zM401 596l-2 -10q-5 -52 -42 -63q-10 -3 -20 -3q-31 0 -68 31l22 37l16 45q51 -33 84 -36zM259 596l-2 -10q-13 -66 -63 -66
q-31 0 -68 31q7 11 15 22l8 18q7 14 16 42q20 -13 29 -18q27 -15 55 -18z" />
    <glyph glyph-name="OE" unicode="&#x152;" horiz-adv-x="1027" 
d="M1029 175q-70 -62 -125 -91q-71 -36 -149 -36q-83 0 -145 35q-71 39 -93 113l-6 33q-54 -74 -116 -121q-80 -60 -153 -60q-50 0 -93 29.5t-63 77.5t-20 112q0 83 34 178q65 181 207 292l154 31l-86 -89q-98 -107 -134 -239q-21 -77 -21 -153q0 -131 85 -131q71 0 150 96
q58 70 98 160q45 101 45 191q0 37 -3 52q-7 35 -30 38q-40 5 -77 -59q-33 -56 -33 -100q0 -16 2 -21q4 -8 19.5 -11.5t36.5 -3.5q-31 -88 -82 -88q-12 0 -19 2q-63 18 -63 94q0 78 57 160q62 89 137 89q27 0 50 -13q47 -27 58 -86q34 47 95 75q57 25 119 25q128 0 148 -102
l-79 -89q0 44 -18 83q-23 49 -62 49q-43 0 -70 -51q-23 -43 -23 -90v-12q2 -8 2 -11q8 -37 51 -49q25 -7 76 -7l-25 -89q-40 7 -66 7q-92 0 -122 -84q-8 -23 -8 -46q0 -53 33 -94t85 -42q5 0 12 -1h7q94 0 210 121zM697 442q-40 23 -60 57q-15 -52 -35 -99q41 28 95 42z" />
    <glyph glyph-name="oe" unicode="&#x153;" horiz-adv-x="574" 
d="M584 264q-50 -39 -59 -45q-14 -10 -40 -21q-51 -22 -110 -22q-85 0 -133 48q-54 -48 -124 -48q-66 0 -109 49q-31 36 -31 84q0 72 60 129q46 44 101 54l17 3q25 18 74 18q65 0 94 -36q53 29 109 29q68 0 99 -48q10 -16 10 -32q0 -46 -74 -81q-48 -22 -122 -41
q18 -51 81 -51q5 0 13 1q79 10 144 55v-45zM432 419q5 38 -21 38q-2 0 -11 -2q-31 -7 -49 -40q-16 -28 -16 -63q41 10 61 21q32 18 36 46zM219 461q-44 0 -72 -40.5t-30 -86.5q-4 -90 47 -90q19 0 34 10q5 3 17 13q-6 17 -6 32q-30 41 -30 82q0 47 40 80z" />
    <glyph glyph-name="Ydieresis" unicode="&#x178;" horiz-adv-x="782" 
d="M789 200q-35 -53 -82 -82q-32 -20 -112 -48q-90 -244 -239 -252q-41 -2 -72.5 18.5t-31.5 59.5q0 9 1 15q11 66 76 110q39 26 126 58l62 243q-65 -149 -138 -215q-53 -48 -106 -48q-121 0 -121 131q0 59 24 150q7 26 48 156q27 87 32 124q1 8 1 15q0 23 -12 40.5
t-34 17.5q-23 0 -47 -20q-55 -45 -55 -102t55 -93l-80 -79q-22 21 -43 43q-25 39 -25 89q0 83 65.5 155t147.5 72q66 0 114 -55q42 -48 42 -133q0 -82 -39 -198q-17 -47 -48 -141q-11 -38 -11 -61q0 -29 17 -33q69 -15 174 233q7 15 44 110q45 114 51 131q29 75 45 133
l146 16q-8 -32 -45 -206q-30 -140 -46 -208q-26 -112 -54 -205q45 20 66 34q27 18 54 50zM438 15q-119 -49 -130 -104q-1 -5 -1 -12q0 -21 17 -25q8 -1 14 -1q57 0 100 142zM615 806l-2 -10q-5 -52 -42 -63q-10 -3 -20 -3q-31 0 -68 31l22 37l16 45q51 -33 84 -36zM473 806
l-2 -10q-13 -66 -63 -66q-31 0 -68 31q7 11 15 22l8 18q7 14 16 42q20 -13 29 -18q27 -15 55 -18z" />
    <glyph glyph-name="circumflex" unicode="&#x2c6;" horiz-adv-x="390" 
d="M322 657l-5 -20q-93 0 -127 108q-57 -77 -175 -114l6 29q87 54 146 155l109 20v-26q-1 -17 -1 -26q0 -87 47 -126z" />
    <glyph glyph-name="tilde" unicode="&#x2dc;" horiz-adv-x="349" 
d="M339 796q-49 -91 -115 -91q-22 0 -43 11q-10 6 -25 14q-23 12 -28 14q-14 6 -27 6q-23 0 -45 -26l-6 -7l-28 17q13 28 17 34q21 36 53 52q14 7 36 7q17 0 47 -12q67 -27 85 -27q27 0 43 24l6 9z" />
    <glyph glyph-name="quoteleft" unicode="&#x2018;" horiz-adv-x="214" 
d="M211 673q-105 -55 -105 -98q0 -29 35 -50q9 -5 34 -17l-88 -104q-43 30 -58 46q-28 31 -28 68q-1 6 -1 10q0 62 51 111q41 40 146 83z" />
    <glyph glyph-name="quoteright" unicode="&#x2019;" horiz-adv-x="214" 
d="M223 644q1 -6 1 -10q0 -62 -50 -110q-42 -41 -147 -84l-14 49q105 55 105 98q0 29 -35 50q-9 5 -34 17l88 104q43 -30 58 -46q28 -31 28 -68z" />
    <glyph glyph-name="quotedblleft" unicode="&#x201c;" horiz-adv-x="319" 
d="M362 683q-38 -20 -52 -29q-32 -20 -44 -39q-9 -14 -9 -28q0 -36 43 -56q10 -4 27 -13l-88 -104q-35 25 -50 39q-24 23 -32 51l-76 -90q-43 29 -59 46q-28 31 -28 68q-1 6 -1 10q0 61 50 109q42 40 147 85l14 -49q-38 -20 -52 -29q-32 -20 -44 -39q-9 -14 -9 -28
q0 -27 27 -47q10 -8 26 -15q-1 8 -1 12q0 62 50 110q42 40 147 85z" />
    <glyph glyph-name="quotedblright" unicode="&#x201d;" horiz-adv-x="407" 
d="M388 644q1 -6 1 -10q0 -61 -50 -109q-42 -40 -147 -85l-14 49q38 20 52 29q32 20 44 39q9 14 9 28q0 27 -26 47q-11 8 -27 15q1 -8 1 -12q0 -62 -50 -110q-42 -40 -147 -85l-14 49q38 20 52 29q32 20 44 39q9 14 9 28q0 40 -70 69l88 104q35 -25 50 -39q24 -23 32 -51
l76 90q43 -29 59 -46q28 -31 28 -68z" />
    <glyph glyph-name="bullet" unicode="&#x2022;" horiz-adv-x="412" 
d="M351 361q0 -59 -41.5 -100.5t-100.5 -41.5q-60 0 -101.5 41t-41.5 101q0 59 42 100.5t101 41.5t100.5 -41.5t41.5 -100.5z" />
    <glyph glyph-name="asterisk" unicode="*" horiz-adv-x="247" 
d="M235 462l-16 -28l-80 46v-92h-32v91l-80 -46l-16 28l80 47l-80 46l17 28l79 -46v92h32v-93l80 46l16 -28l-79 -45z" />
    <glyph glyph-name="dollar" unicode="$" horiz-adv-x="417" 
d="M398 174q0 -69 -52.5 -118t-122.5 -55v-67h-32v66q-2 0 -6 1h-7v-67h-32v73q-51 11 -87 46q-40 38 -40 87q0 59 68 110q15 -26 47 -80q-38 -30 -38 -60q0 -43 50 -66v263q-107 68 -107 147q0 47 30 84t77 49v46h32v-42q4 1 13 1v41h32v-46q47 -12 78 -48.5t31 -84.5
q0 -22 -16 -66l-79 56q1 2 3.5 6t3.5 6q7 15 7 32q0 37 -28 58v-168q175 -87 175 -204zM191 397v162h-13v-154q4 -2 13 -8zM146 432v113q-27 -22 -27 -56q0 -30 27 -57zM318 135q0 64 -95 124v-225q39 6 67 34.5t28 66.5zM191 33v246l-13 8v-253h7q4 -1 6 -1z" />
    <glyph glyph-name="percent" unicode="%" horiz-adv-x="722" 
d="M541 0q-63 0 -105.5 54t-42.5 129q0 74 42.5 128t105.5 54t105.5 -54t42.5 -128q0 -75 -42.5 -129t-105.5 -54zM536 609l-307 -649l-52 28l307 645zM181 236q-63 0 -105.5 54t-42.5 129q0 74 42.5 128t105.5 54t105.5 -54t42.5 -128q0 -75 -42.5 -129t-105.5 -54z
M648 173q3 66 -33 112q-18 23 -39 23q-25 0 -46 -33q-24 -38 -24 -93q0 -53 24 -92q21 -34 47 -34q14 0 26 11q41 36 45 106zM288 409q3 66 -33 112q-18 23 -39 23q-25 0 -46 -33q-24 -38 -24 -93q0 -54 24 -93q20 -33 47 -33q13 0 26 11q41 36 45 106z" />
    <glyph glyph-name="numbersign" unicode="#" horiz-adv-x="376" 
d="M359 290h-103l-28 -151h-42l29 151h-83l-28 -151h-42l29 151h-74v40h81l18 92h-99v41h106l26 137h42l-26 -137h82l26 137h41l-25 -137h70v-41h-78l-17 -92h95v-40zM240 422h-83l-17 -92h82z" />
    <glyph glyph-name="plus" unicode="+" horiz-adv-x="547" 
d="M514 216h-190v-190h-101v190h-190v102h190v189h101v-189h190v-102z" />
    <glyph glyph-name="comma" unicode="," horiz-adv-x="123" 
d="M115 12q-14 -71 -82 -94l-10 31q25 8 44 34q-10 -3 -19 -3q-42 0 -42 50q0 32 22 53q19 18 41 18t35 -19q20 -28 11 -70z" />
    <glyph glyph-name="hyphen" unicode="-" horiz-adv-x="180" 
d="M173 261h-161v82h161v-82z" />
    <glyph glyph-name="period" unicode="." horiz-adv-x="119" 
d="M104 82q10 -14 10 -32q0 -27 -18.5 -48.5t-44.5 -21.5q-23 0 -36 19q-9 14 -9 31q0 27 18.5 49t44.5 22q22 0 35 -19z" />
    <glyph glyph-name="slash" unicode="/" horiz-adv-x="119" 
d="M104 82q10 -14 10 -32q0 -27 -18.5 -48.5t-44.5 -21.5q-23 0 -36 19q-9 14 -9 31q0 27 18.5 49t44.5 22q22 0 35 -19z" />
    <glyph glyph-name="bracketleft" unicode="[" horiz-adv-x="148" 
d="M142 -154h-135v784h135v-39h-49v-705h49v-40z" />
    <glyph glyph-name="bracketright" unicode="]" horiz-adv-x="148" 
d="M6 -154h135v784h-135v-39h49v-705h-49v-40z" />
    <glyph glyph-name="backslash" unicode="\" horiz-adv-x="471" 
d="M40 629l307 -782l82 30l-307 782z" />
    <glyph glyph-name="colon" unicode=":" horiz-adv-x="119" 
d="M104 282q10 -14 10 -32q0 -27 -18.5 -48.5t-44.5 -21.5q-23 0 -36 19q-9 14 -9 31q0 27 18.5 49t44.5 22q22 0 35 -19zM104 82q10 -14 10 -32q0 -27 -18.5 -48.5t-44.5 -21.5q-23 0 -36 19q-9 14 -9 31q0 27 18.5 49t44.5 22q22 0 35 -19z" />
    <glyph glyph-name="semicolon" unicode=";" horiz-adv-x="123" 
d="M104 282q10 -14 10 -32q0 -27 -18.5 -48.5t-44.5 -21.5q-23 0 -36 19q-9 14 -9 31q0 27 18.5 49t44.5 22q22 0 35 -19zM115 12q-14 -71 -82 -94l-10 31q25 8 44 34q-10 -3 -19 -3q-42 0 -42 50q0 32 22 53q19 18 41 18t35 -19q20 -28 11 -70z" />
    <glyph glyph-name="question" unicode="?" horiz-adv-x="307" 
d="M293 460q-1 -49 -22 -95q-23 -49 -73 -95q-54 -49 -54 -94q0 -18 4 -33l-31 -10q-9 26 -9 52q0 59 57 168q4 7 14 26q21 41 21 99q0 92 -49 93q-24 0 -42 -23q-20 -26 -20 -61q0 -28 13.5 -49t54.5 -48l-69 -57q-74 49 -74 127q0 59 40.5 101.5t98.5 42.5t99.5 -42.5
t40.5 -101.5zM197 82q10 -14 10 -31q0 -27 -19 -49t-44 -22q-23 0 -36 19q-10 14 -10 32q0 27 18.5 48.5t44.5 21.5q22 0 36 -19z" />
    <glyph glyph-name="at" unicode="@" horiz-adv-x="623" 
d="M594 314q-3 -56 -37 -105q-31 -45 -75 -69q-34 -18 -64 -18q-65 0 -81 73q-61 -69 -113 -69q-12 0 -24 5q-43 17 -43 79q0 45 19 92q39 97 114 147q36 24 69 24q23 0 40 -12.5t31 -53.5l-55 -14q-15 37 -35 37q-24 0 -50 -30q-43 -49 -43 -118q0 -64 37 -64q23 0 49 29
q1 27 10 123h90q-5 -57 -14 -172q-2 -20 18 -28q18 -8 35 2q36 21 62 59.5t28 83.5q5 98 -59 161.5t-168 63.5q-113 0 -191 -70q-83 -74 -83 -191q0 -95 71.5 -159t179.5 -64q119 0 208 78l21 -25q-99 -86 -229 -86q-122 0 -203 73.5t-81 182.5q0 132 94 216q87 78 211 78
q118 0 194 -75q73 -72 67 -184z" />
    <glyph glyph-name="less" unicode="&#x3c;" horiz-adv-x="557" 
d="M522 169l-39 -95l-450 189v89l450 188l39 -94l-330 -139z" />
    <glyph glyph-name="greater" unicode="&#x3e;" horiz-adv-x="557" 
d="M523 263l-450 -189l-39 95l331 138l-331 139l39 94l450 -188v-89z" />
    <glyph glyph-name="twosuperior" unicode="&#xb2;" horiz-adv-x="639" 
d="M672 475q-42 -30 -52 -36q-36 -21 -61 -21q-48 0 -55 60q-47 -59 -109 -59q-39 0 -62 35l-4 6q-60 -42 -95 -42q-37 0 -54 27q-8 11 -8 26q0 19 14 52q19 45 21 51v6q-2 1 -13 -6q-23 -15 -37 -27q-8 -7 -33 -32q-4 -23 -4 -49v-17q2 -12 2 -18l-81 -13q-9 38 -9 73
q0 40 19 90q6 16 21 46l93 16l-13 -32q-7 -17 -12 -33q67 61 116 61t49 -44q0 -21 -31 -92q-12 -27 -5 -30q3 -1 7 -1q18 0 45 16q-1 8 -1 12q0 17 7 37q14 40 62 72t91 32q24 0 44 -12l34 137l97 16q-36 -130 -59 -242q-6 -29 -6 -44q0 -16 5 -19q9 -6 39 7q23 10 38 21
v-30zM530 336l-9 -17q-62 25 -131 25q-136 0 -241 -93l-9 -8l-47 76q107 79 231 79q114 0 206 -62zM510 578q0 30 -20 30q-29 0 -53 -36t-24 -66q0 -28 22 -28q39 0 65 55q10 23 10 45z" />
    <glyph glyph-name="threesuperior" unicode="&#xb3;" horiz-adv-x="598" 
d="M603 475q-42 -30 -52 -36q-36 -21 -61 -21q-48 0 -55 60q-47 -59 -109 -59q-19 0 -36 9t-26 26l-6 11q-66 -46 -100 -46q-24 0 -40.5 15t-16.5 38q0 31 27 73q-8 -3 -26 -5q-25 -37 -73 -71v33q29 15 29 42q-24 10 -24 38q0 25 19 42t44 17q35 0 35 -34q0 -14 -6 -26
q39 10 71 58l43 1l-41 -100q-11 -27 -11 -43q0 -18 20 -18t43 14q0 67 68 115q47 33 92 33q24 0 44 -12l34 137l98 16q-35 -124 -60 -242q-6 -29 -6 -44q0 -16 5 -19q9 -6 39 7q23 10 38 21v-30zM504 336l-9 -17q-62 25 -131 25q-136 0 -241 -93l-9 -8l-47 76q107 79 231 79
q114 0 206 -62zM441 578q0 30 -20 30q-29 0 -53 -36t-24 -66q0 -28 22 -28q39 0 65 55q10 23 10 45z" />
    <glyph glyph-name="onesuperior" unicode="&#xb9;" horiz-adv-x="476" 
d="M460 478q-37 -27 -56 -38q-37 -21 -65 -21q-36 0 -58 26q-11 12 -15 27q-80 -53 -161 -53q-49 0 -71 27l-8 10l59 51q14 -33 26 -42q7 -6 17 -6q15 0 28 10t13 25q0 5 -3 11q-8 12 -16 22q-27 32 -31 36q-45 -57 -97 -92v30q63 40 91 124l3 6l91 12l-8 -19q-5 -10 -5 -18
q0 -11 26 -41q17 -20 19 -37q0 -26 -19 -50l44 23q0 13 5 33l12 48l-22 -2l13 53l27 1q3 8 13 36l13 36l100 17l-28 -84l44 2l-11 -50l-50 -3l-11 -32q-13 -38 -13 -54q0 -29 24 -29q18 0 46 15q8 4 34 20v-30zM465 336l-9 -17q-63 25 -132 25q-68 0 -129 -23
q-69 -27 -112 -70l-8 -8l-48 76q107 79 231 79q113 0 207 -62z" />
    <glyph glyph-name="onequarter" unicode="&#xbc;" horiz-adv-x="534" 
d="M541 477q-18 -13 -54.5 -35.5t-67.5 -22.5q-38 0 -54 26q-8 11 -8 26q0 20 15 53q19 43 22 51q2 5 0 7t-6 1q-29 -4 -78 -46q-3 -29 -3 -58v-24q2 -16 2 -24l-82 -13q-2 7 -4 19q-4 20 -4 33q-36 -25 -52 -34q-31 -17 -58 -17q-45 0 -64 34q-11 18 -11 41q0 20 5 40
l12 48l-22 -2l13 53l27 1l26 72l100 17l-28 -84l44 2l-11 -50l-50 -3l-11 -32q-13 -38 -13 -54q0 -30 24 -30q19 0 67 28q0 126 88 243q18 13 78 28q16 4 26 4q15 0 25 -7.5t11.5 -17.5t1.5 -19q0 -26 -18 -57q-10 -17 -36 -49q32 14 52 14q47 0 47 -44q0 -21 -31 -92
q-12 -27 -5 -30q12 -5 43 10l42 24v-30zM474 336l-9 -17q-62 25 -131 25q-136 0 -241 -93l-9 -8l-47 76q107 79 231 79q114 0 206 -62zM406 714q2 8 2 12q-5 2 -9 4q-29 -15 -55 -72q-12 -27 -20 -56q71 69 82 112z" />
    <glyph glyph-name="Eth" unicode="&#xd0;" horiz-adv-x="829" 
d="M811 456q0 -122 -79 -235t-194 -151q-57 -19 -120 -19q-89 0 -164 36q-31 -18 -48 -26q-30 -13 -55 -13q-27 0 -47 17t-20 44q0 55 60 77q28 10 62 10q37 0 77 -11q22 20 33 56q8 25 14 66l5 33h-62l9 39h60q18 103 53 154q47 68 148 97l34 -42q-44 -35 -63 -96
q-9 -29 -21 -113h73l-8 -39h-71q-16 -84 -60 -131q-20 -22 -64 -53q83 -35 124 -35q66 0 104 70q61 112 61 247q0 206 -150 252q-23 7 -49 7q-76 0 -142 -45q-72 -51 -72 -124q0 -53 82 -76l-119 -66q-74 39 -74 111q0 46 32 97q28 44 69 76q109 84 252 84q81 0 152 -30
q83 -35 130.5 -106.5t47.5 -161.5z" />
    <glyph glyph-name="Yacute" unicode="&#xdd;" horiz-adv-x="782" 
d="M789 200q-35 -53 -82 -82q-32 -20 -112 -48q-90 -244 -239 -252q-41 -2 -72.5 18.5t-31.5 59.5q0 9 1 15q11 66 76 110q39 26 126 58l62 243q-65 -149 -138 -215q-53 -48 -106 -48q-121 0 -121 131q0 59 24 150q7 26 48 156q27 87 32 124q1 8 1 15q0 23 -12 40.5
t-34 17.5q-23 0 -47 -20q-55 -45 -55 -102t55 -93l-80 -79q-22 21 -43 43q-25 39 -25 89q0 83 65.5 155t147.5 72q66 0 114 -55q42 -48 42 -133q0 -82 -39 -198q-17 -47 -48 -141q-11 -38 -11 -61q0 -29 17 -33q69 -15 174 233q7 15 44 110q45 114 51 131q29 75 45 133
l146 16q-8 -32 -45 -206q-30 -140 -46 -208q-26 -112 -54 -205q45 20 66 34q27 18 54 50zM438 15q-119 -49 -130 -104q-1 -5 -1 -12q0 -21 17 -25q8 -1 14 -1q57 0 100 142zM666 913l-3 -14q-8 -38 -61.5 -88t-105.5 -73q-7 -2 -22 5l-15 4q75 81 97 153z" />
    <glyph glyph-name="Thorn" unicode="&#xde;" horiz-adv-x="760" 
d="M738 431q4 -23 4 -46q0 -95 -62 -157.5t-156 -62.5q-38 0 -68 21q-14 10 -36 30l51 75l35 -8q7 -61 28 -61q25 0 47 69q16 50 16 79v23q0 88 -21 110q-14 14 -49 14q-28 0 -68 -10q-3 -43 -10 -127q-13 -118 -66 -203q-60 -96 -167 -126q-35 -10 -73 -10q-126 0 -144 109
l-2 12l149 106q-23 -82 -23 -119q0 -55 36 -55q42 0 75 47q25 35 40 86.5t25 173.5q9 115 29 174q31 89 107 132q34 20 63 28l36 -40q-52 -53 -67 -126q45 15 88 15q74 0 122 -40t61 -113zM196 126q-12 -5 -34 -13q11 5 34 13z" />
    <glyph glyph-name="eth" unicode="&#xf0;" horiz-adv-x="372" 
d="M379 264q-50 -39 -59 -45q-15 -10 -40 -21q-52 -22 -120 -22q-47 0 -77 13q-84 36 -84 117q0 20 8 45q21 66 90 112q66 44 137 44l26 -3q-13 28 -32 54l-60 -31l-17 35l51 26q-25 25 -79 67l70 58q50 -39 86 -86l66 34l17 -34l-61 -32q50 -80 50 -163q0 -87 -55 -165
q48 18 82 41zM277 407q0 51 -33 51q-32 0 -63 -38q-26 -31 -37 -67q-7 -22 -7 -42q0 -48 38 -48h1q24 0 51 26q21 20 35.5 54.5t14.5 63.5z" />
    <glyph glyph-name="yacute" unicode="&#xfd;" horiz-adv-x="521" 
d="M525 261q-43 -26 -101 -51q-31 -13 -78 -32q-67 -147 -169 -170q-18 -4 -40 -4q-85 0 -85 64q0 55 82 96q40 20 83 33l10 35q-82 -58 -142 -58q-56 0 -77 39q-13 23 -13 56q0 40 16 90q19 62 51 120l5 9l153 16l-28 -65q-59 -108 -59 -163q0 -23 17 -23q70 0 135 157
q7 16 31 77l148 20q-18 -51 -58 -167q-22 -64 -36 -101l82 31q42 16 73 36v-45zM198 137q-79 -28 -88 -71q-4 -18 12 -18q31 0 51 34q12 20 25 55zM456 685l-3 -14q-8 -38 -61.5 -88t-105.5 -73q-7 -2 -22 5l-15 4q75 81 97 153z" />
    <glyph glyph-name="thorn" unicode="&#xfe;" horiz-adv-x="530" 
d="M538 264q-39 -29 -110 -56q-82 -31 -144 -31q-53 0 -82 22q-15 -84 -28 -180l-139 -19q21 167 59 333q-41 -43 -93 -75v45q89 61 141 187q18 43 28 114q0 3 8 65h121l-43 -208q61 53 116 53q57 0 91 -49q31 -44 31 -103q0 -50 -25 -93q21 9 43 22q7 4 26 17v-44zM318 421
q-41 0 -71 -51q-26 -44 -26 -89q0 -55 40 -55q41 0 72 53q26 46 26 90q0 52 -41 52z" />
    <glyph glyph-name="Scaron" unicode="&#x160;" horiz-adv-x="524" 
d="M618 971l-6 -29q-87 -54 -146 -155l-109 -20v26v13q1 9 1 13q1 86 -47 126l5 20q93 0 127 -108q57 77 175 114zM558 658l-92 -125q-15 74 -22 94q-21 59 -58 67q-19 4 -29 4q-31 0 -55.5 -25t-24.5 -56q0 -38 43 -88q38 -38 110 -116q55 -65 64 -124q1 -7 1 -22
q0 -62 -44 -117q-40 -51 -100 -77q-49 -21 -109 -21q-150 0 -196 104l-4 9l104 166l7 -70q7 -70 14 -91q20 -62 87 -62q48 0 84 33.5t36 80.5q0 25 -16 47q-7 10 -36 38q-80 78 -103 108q-51 67 -51 135q0 18 2 31q12 78 73 127t141 49q75 0 126 -43q19 -16 48 -56zM293 136
q-16 -8 -41 -8q-13 0 -19 2q-9 1 -17 6h77z" />
    <glyph glyph-name="scaron" unicode="&#x161;" horiz-adv-x="299" 
d="M417 724l-6 -29q-87 -54 -146 -155l-109 -20v26v13q1 9 1 13q1 86 -47 126l5 20q93 0 127 -108q57 77 175 114zM372 264q-43 -32 -110 -58q-80 -31 -142 -31q-74 0 -107 41l-12 15l88 76q15 -34 16 -35q19 -37 48 -37q21 0 41 15t20 36q0 17 -29 51q-21 25 -45 53
q-67 -83 -145 -138v46q94 60 135 184l5 10l136 17q-19 -36 -19 -52q0 -20 40 -64q26 -28 26 -51q0 -44 -28 -78q21 8 82 44v-44z" />
  </font>
</defs>
</svg>
